<?xml version="1.0" standalone="no"?>
<!DOCTYPE svg PUBLIC "-//W3C//DTD SVG 1.1//EN" "http://www.w3.org/Graphics/SVG/1.1/DTD/svg11.dtd" >
<svg xmlns="http://www.w3.org/2000/svg">
<metadata>Generated by IcoMoon</metadata>
<defs>
<font id="icomoon" horiz-adv-x="1024">
<font-face units-per-em="1024" ascent="960" descent="-64" />
<missing-glyph horiz-adv-x="1024" />
<glyph unicode="&#x20;" horiz-adv-x="512" d="" />
<glyph unicode="&#xe900;" glyph-name="navigation-more" d="M204.8 358.4c-56.554 0-102.4 45.846-102.4 102.4s45.846 102.4 102.4 102.4v0c56.554 0 102.4-45.846 102.4-102.4s-45.846-102.4-102.4-102.4v0zM512 358.4c-56.554 0-102.4 45.846-102.4 102.4s45.846 102.4 102.4 102.4v0c56.554 0 102.4-45.846 102.4-102.4s-45.846-102.4-102.4-102.4v0zM819.2 358.4c-56.554 0-102.4 45.846-102.4 102.4s45.846 102.4 102.4 102.4v0c56.554 0 102.4-45.846 102.4-102.4s-45.846-102.4-102.4-102.4v0z" />
<glyph unicode="&#xe901;" glyph-name="x" d="M778.411 864h141.141l-308.352-352.427 362.752-479.573h-284.032l-222.464 290.859-254.549-290.859h-141.227l329.813 376.96-347.989 455.040h291.243l201.088-265.856zM728.875 116.48h78.208l-504.832 667.477h-83.925z" />
<glyph unicode="&#xe902;" glyph-name="youtube1" d="M1002.453 695.253c-12.365 43.307-45.781 76.722-88.183 88.866l-0.905 0.222c-79.787 21.376-400.896 21.376-400.896 21.376s-320.299 0.427-400.896-21.376c-43.307-12.365-76.722-45.781-88.866-88.183l-0.222-0.905c-14.173-72.978-22.281-156.904-22.281-242.723 0-1.743 0.003-3.484 0.010-5.225l-0.001 0.268c-0.004-1.198-0.006-2.617-0.006-4.035 0-85.813 8.107-169.732 23.598-251.033l-1.32 8.327c12.365-43.307 45.781-76.722 88.183-88.866l0.905-0.222c79.701-21.419 400.896-21.419 400.896-21.419s320.256 0 400.896 21.419c43.307 12.365 76.722 45.781 88.866 88.183l0.222 0.905c13.59 71.472 21.364 153.686 21.364 237.715 0 3.173-0.011 6.344-0.033 9.513l0.003-0.486c0.024 2.951 0.037 6.439 0.037 9.929 0 84.041-7.776 166.267-22.648 245.996l1.278-8.245zM409.984 294.357v306.901l267.264-153.685z" />
<glyph unicode="&#xe903;" glyph-name="error" d="M554 406v256h-84v-256h84zM554 234v86h-84v-86h84zM512 874q176 0 301-125t125-301-125-301-301-125-301 125-125 301 125 301 301 125z" />
<glyph unicode="&#xe904;" glyph-name="error_outline" d="M512 106q140 0 241 101t101 241-101 241-241 101-241-101-101-241 101-241 241-101zM512 874q176 0 301-125t125-301-125-301-301-125-301 125-125 301 125 301 301 125zM470 662h84v-256h-84v256zM470 320h84v-86h-84v86z" />
<glyph unicode="&#xe905;" glyph-name="warning1" d="M554 362v172h-84v-172h84zM554 192v86h-84v-86h84zM42 64l470 810 470-810h-940z" />
<glyph unicode="&#xe906;" glyph-name="add_alert" d="M682 404v86h-128v128h-84v-128h-128v-86h128v-128h84v128h128zM806 242l90-90v-46h-768v46l90 90v248q0 96 66 180t160 106v30q0 28 20 48t48 20 48-20 20-48v-30q98-22 162-103t64-183v-248zM428 64h168q0-34-25-60t-59-26-59 26-25 60z" />
<glyph unicode="&#xe907;" glyph-name="notification_important" d="M512 22q-36 0-61 24t-25 60h172q0-34-26-59t-60-25zM554 448v170h-84v-170h84zM554 278v84h-84v-84h84zM768 278l86-86v-42h-684v42l86 86v212q0 100 51 174t141 96v30q0 26 18 45t46 19 46-19 18-45v-30q90-22 141-96t51-174v-212z" />
<glyph unicode="&#xe908;" glyph-name="album" d="M512 490q18 0 30-12t12-30-12-30-30-12-30 12-12 30 12 30 30 12zM512 256q80 0 136 56t56 136-56 136-136 56-136-56-56-136 56-136 136-56zM512 874q176 0 301-125t125-301-125-301-301-125-301 125-125 301 125 301 301 125z" />
<glyph unicode="&#xe909;" glyph-name="av_timer" d="M256 448q0 18 12 30t30 12 31-12 13-30-13-30-31-12-30 12-12 30zM768 448q0-18-12-30t-30-12-31 12-13 30 13 30 31 12 30-12 12-30zM470 832h42q160 0 272-112t112-272-112-272-272-112-272 112-112 272q0 192 154 306v2l290-290-60-60-232 230q-66-82-66-188 0-124 87-211t211-87 211 87 87 211q0 112-74 196t-182 100v-82h-84v170zM470 234q0 18 12 31t30 13 30-13 12-31-12-30-30-12-30 12-12 30z" />
<glyph unicode="&#xe90a;" glyph-name="closed_caption" d="M768 490v44q0 18-12 30t-30 12h-128q-18 0-31-12t-13-30v-172q0-18 13-30t31-12h128q18 0 30 12t12 30v44h-64v-22h-86v128h86v-22h64zM470 490v44q0 18-13 30t-31 12h-128q-18 0-30-12t-12-30v-172q0-18 12-30t30-12h128q18 0 31 12t13 30v44h-64v-22h-86v128h86v-22h64zM810 790q34 0 60-26t26-60v-512q0-34-26-60t-60-26h-596q-36 0-61 25t-25 61v512q0 36 25 61t61 25h596z" />
<glyph unicode="&#xe90b;" glyph-name="equalizer" d="M682 576h172v-470h-172v470zM170 106v342h172v-342h-172zM426 106v684h172v-684h-172z" />
<glyph unicode="&#xe90c;" glyph-name="explicit" d="M640 576v86h-256v-428h256v86h-170v86h170v84h-170v86h170zM810 832q34 0 60-26t26-60v-596q0-34-26-60t-60-26h-596q-34 0-60 26t-26 60v596q0 34 26 60t60 26h596z" />
<glyph unicode="&#xe90d;" glyph-name="fast_forward" d="M554 704l364-256-364-256v512zM170 192v512l364-256z" />
<glyph unicode="&#xe90e;" glyph-name="fast_rewind" d="M490 448l364 256v-512zM470 192l-364 256 364 256v-512z" />
<glyph unicode="&#xe90f;" glyph-name="games" d="M704 576h234v-256h-234l-128 128zM384 256l128 128 128-128v-234h-256v234zM320 576l128-128-128-128h-234v256h234zM640 640l-128-128-128 128v234h256v-234z" />
<glyph unicode="&#xe910;" glyph-name="hearing" d="M490 576q0 44 32 75t76 31 75-31 31-75-31-75-75-31-76 31-32 75zM326 848q-112-112-112-272t112-272l-60-60q-138 138-138 332t138 332zM726 106q34 0 59 26t25 60h86q0-70-50-120t-120-50q-38 0-70 14-82 42-118 152-14 44-72 88-82 60-122 134-46 82-46 166 0 126 87 212t213 86 212-86 86-212h-86q0 90-61 152t-151 62-152-62-62-152q0-64 34-126 28-54 100-108 80-60 102-128 26-76 72-100 16-8 34-8z" />
<glyph unicode="&#xe911;" glyph-name="high_quality" d="M618 384v128h86v-128h-86zM768 362v172q0 18-12 30t-30 12h-128q-18 0-31-12t-13-30v-172q0-18 13-30t31-12h32v-64h64v64h32q18 0 30 12t12 30zM470 320v256h-64v-106h-86v106h-64v-256h64v86h86v-86h64zM810 790q34 0 60-26t26-60v-512q0-34-26-60t-60-26h-596q-36 0-61 25t-25 61v512q0 36 25 61t61 25h596z" />
<glyph unicode="&#xe912;" glyph-name="loop" d="M512 192v128l170-170-170-172v128q-140 0-241 101t-101 241q0 100 54 182l62-62q-30-54-30-120 0-106 75-181t181-75zM512 790q140 0 241-101t101-241q0-100-54-182l-62 62q30 54 30 120 0 106-75 181t-181 75v-128l-170 170 170 172v-128z" />
<glyph unicode="&#xe913;" glyph-name="mic" d="M738 490h72q0-108-75-189t-181-97v-140h-84v140q-106 16-181 97t-75 189h72q0-94 67-155t159-61 159 61 67 155zM512 362q-52 0-90 38t-38 90v256q0 52 38 90t90 38 90-38 38-90v-256q0-52-38-90t-90-38z" />
<glyph unicode="&#xe914;" glyph-name="mic_none" d="M738 490h72q0-108-75-189t-181-97v-140h-84v140q-106 16-181 97t-75 189h72q0-94 67-155t159-61 159 61 67 155zM460 750v-264q0-20 15-35t37-15q20 0 35 14t15 36l2 264q0 22-16 37t-36 15-36-15-16-37zM512 362q-52 0-90 38t-38 90v256q0 52 38 90t90 38 90-38 38-90v-256q0-52-38-90t-90-38z" />
<glyph unicode="&#xe915;" glyph-name="mic_off" d="M182 832l714-714-54-54-178 178q-44-28-110-38v-140h-84v140q-106 16-181 97t-75 189h72q0-94 67-155t159-61q50 0 98 22l-70 70q-16-4-28-4-52 0-90 38t-38 90v32l-256 256zM640 484l-256 254v8q0 52 38 90t90 38 90-38 38-90v-262zM810 490q0-74-38-140l-52 54q18 40 18 86h72z" />
<glyph unicode="&#xe916;" glyph-name="movie" d="M768 790h170v-598q0-34-25-60t-59-26h-684q-34 0-59 26t-25 60v512q0 34 25 60t59 26h44l84-172h128l-84 172h84l86-172h128l-86 172h86l86-172h128z" />
<glyph unicode="&#xe917;" glyph-name="library_add" d="M810 490v86h-170v170h-86v-170h-170v-86h170v-170h86v170h170zM854 874q34 0 59-25t25-59v-512q0-34-25-60t-59-26h-512q-34 0-60 26t-26 60v512q0 34 26 59t60 25h512zM170 704v-598h598v-84h-598q-34 0-59 25t-25 59v598h84z" />
<glyph unicode="&#xe918;" glyph-name="library_books" d="M810 662v84h-426v-84h426zM640 320v86h-256v-86h256zM810 490v86h-426v-86h426zM854 874q34 0 59-25t25-59v-512q0-34-25-60t-59-26h-512q-34 0-60 26t-26 60v512q0 34 26 59t60 25h512zM170 704v-598h598v-84h-598q-34 0-59 25t-25 59v598h84z" />
<glyph unicode="&#xe919;" glyph-name="library_music" d="M170 704v-598h598v-84h-598q-34 0-59 25t-25 59v598h84zM768 662v84h-170v-234q-28 22-64 22-44 0-76-32t-32-76 32-75 76-31 75 31 31 75v236h128zM854 874q34 0 59-25t25-59v-512q0-34-25-60t-59-26h-512q-34 0-60 26t-26 60v512q0 34 26 59t60 25h512z" />
<glyph unicode="&#xe91a;" glyph-name="new_releases" d="M554 406v256h-84v-256h84zM554 234v86h-84v-86h84zM982 448l-104-118 14-158-154-34-80-136-146 62-146-62-80 134-154 36 14 158-104 118 104 120-14 156 154 34 80 136 146-62 146 62 80-136 154-34-14-158z" />
<glyph unicode="&#xe91b;" glyph-name="not_interested" d="M782 238q72 90 72 210 0 140-101 241t-241 101q-48 0-110-21t-100-51zM512 106q48 0 110 21t100 51l-480 480q-72-90-72-210 0-140 101-241t241-101zM512 874q176 0 301-125t125-301-125-301-301-125-301 125-125 301 125 301 301 125z" />
<glyph unicode="&#xe91c;" glyph-name="pause1" d="M598 746h170v-596h-170v596zM256 150v596h170v-596h-170z" />
<glyph unicode="&#xe91d;" glyph-name="pause_circle_filled" d="M640 278v340h-86v-340h86zM470 278v340h-86v-340h86zM512 874q176 0 301-125t125-301-125-301-301-125-301 125-125 301 125 301 301 125z" />
<glyph unicode="&#xe91e;" glyph-name="pause_circle_outline" d="M554 278v340h86v-340h-86zM512 106q140 0 241 101t101 241-101 241-241 101-241-101-101-241 101-241 241-101zM512 874q176 0 301-125t125-301-125-301-301-125-301 125-125 301 125 301 301 125zM384 278v340h86v-340h-86z" />
<glyph unicode="&#xe91f;" glyph-name="play_arrow" d="M342 746l468-298-468-298v596z" />
<glyph unicode="&#xe920;" glyph-name="play_circle_filled" d="M426 256l256 192-256 192v-384zM512 874q176 0 301-125t125-301-125-301-301-125-301 125-125 301 125 301 301 125z" />
<glyph unicode="&#xe921;" glyph-name="play_circle_outline" d="M512 106q140 0 241 101t101 241-101 241-241 101-241-101-101-241 101-241 241-101zM512 874q176 0 301-125t125-301-125-301-301-125-301 125-125 301 125 301 301 125zM426 256v384l256-192z" />
<glyph unicode="&#xe922;" glyph-name="playlist_add" d="M86 278v84h340v-84h-340zM768 362h170v-84h-170v-172h-86v172h-170v84h170v172h86v-172zM598 704v-86h-512v86h512zM598 534v-86h-512v86h512z" />
<glyph unicode="&#xe923;" glyph-name="queue_music" d="M726 704h212v-86h-128v-384q0-52-38-90t-90-38-90 38-38 90 38 90 90 38q16 0 44-8v350zM128 278v84h342v-84h-342zM640 534v-86h-512v86h512zM640 704v-86h-512v86h512z" />
<glyph unicode="&#xe924;" glyph-name="radio" d="M854 448v170h-684v-170h512v86h86v-86h86zM298 106q52 0 90 38t38 90-38 90-90 38-90-38-38-90 38-90 90-38zM138 698l540 220 28-72-352-142h500q36 0 60-25t24-61v-512q0-36-24-60t-60-24h-684q-36 0-60 24t-24 60v512q0 60 52 80z" />
<glyph unicode="&#xe925;" glyph-name="recent_actors" d="M534 234v32q0 44-66 70t-126 26-126-26-66-70v-32h384zM342 630q-38 0-67-29t-29-67 29-67 67-29 67 29 29 67-29 67-67 29zM598 746q18 0 30-12t12-30v-512q0-18-12-30t-30-12h-512q-18 0-31 12t-13 30v512q0 18 13 30t31 12h512zM726 150v596h84v-596h-84zM896 746h86v-596h-86v596z" />
<glyph unicode="&#xe926;" glyph-name="repeat1" d="M726 234v172h84v-256h-512v-128l-170 170 170 170v-128h428zM298 662v-172h-84v256h512v128l170-170-170-170v128h-428z" />
<glyph unicode="&#xe927;" glyph-name="repeat_one" d="M554 320h-64v170h-64v44l86 42h42v-256zM726 234v172h84v-256h-512v-128l-170 170 170 170v-128h428zM298 662v-172h-84v256h512v128l170-170-170-170v128h-428z" />
<glyph unicode="&#xe928;" glyph-name="replay" d="M512 746q142 0 242-100t100-240q0-142-101-242t-241-100-241 100-101 242h86q0-106 75-181t181-75 181 75 75 181-75 181-181 75v-172l-214 214 214 214v-172z" />
<glyph unicode="&#xe929;" glyph-name="shuffle" d="M632 388l134-134 88 88v-236h-236l88 88-134 134zM618 790h236v-236l-88 88-536-536-60 60 536 536zM452 568l-60-60-222 222 60 60z" />
<glyph unicode="&#xe92a;" glyph-name="skip_next" d="M682 704h86v-512h-86v512zM256 192v512l362-256z" />
<glyph unicode="&#xe92b;" glyph-name="skip_previous" d="M406 448l362 256v-512zM256 704h86v-512h-86v512z" />
<glyph unicode="&#xe92c;" glyph-name="snooze" d="M384 490v86h256v-76l-154-180h154v-86h-256v78l154 178h-154zM512 106q124 0 211 88t87 212-87 211-211 87-211-87-87-211 87-212 211-88zM512 790q160 0 272-113t112-271-112-271-272-113-272 113-112 271 112 271 272 113zM938 716l-54-66-196 166 54 64zM336 816l-196-164-54 64 196 164z" />
<glyph unicode="&#xe92d;" glyph-name="stop1" d="M256 704h512v-512h-512v512z" />
<glyph unicode="&#xe92e;" glyph-name="subtitles" d="M854 362v86h-428v-86h428zM854 192v86h-172v-86h172zM598 192v86h-428v-86h428zM170 448v-86h172v86h-172zM854 790q34 0 59-26t25-60v-512q0-34-25-60t-59-26h-684q-34 0-59 26t-25 60v512q0 34 25 60t59 26h684z" />
<glyph unicode="&#xe92f;" glyph-name="surround_sound" d="M512 534q34 0 60-26t26-60-26-60-60-26-60 26-26 60 26 60 60 26zM754 206q100 100 100 242v2q0 58-29 129t-71 111l-62-62q76-76 76-180 0-108-74-182zM512 278q70 0 120 50t50 120-50 120-120 50-120-50-50-120 50-120 120-50zM332 268q-76 76-76 180 0 108 74 182l-60 60q-100-100-100-242v-2q0-58 29-129t71-111zM854 790q34 0 59-26t25-60v-512q0-34-25-60t-59-26h-684q-34 0-59 26t-25 60v512q0 34 25 60t59 26h684z" />
<glyph unicode="&#xe930;" glyph-name="video_library" d="M512 342l256 192-256 192v-384zM854 874q34 0 59-25t25-59v-512q0-34-25-60t-59-26h-512q-34 0-60 26t-26 60v512q0 34 26 59t60 25h512zM170 704v-598h598v-84h-598q-34 0-59 25t-25 59v598h84z" />
<glyph unicode="&#xe931;" glyph-name="videocam" d="M726 512l170 170v-468l-170 170v-150q0-18-13-30t-31-12h-512q-18 0-30 12t-12 30v428q0 18 12 30t30 12h512q18 0 31-12t13-30v-150z" />
<glyph unicode="&#xe932;" glyph-name="videocam_off" d="M140 874l756-756-54-54-136 136q-12-8-24-8h-512q-18 0-30 12t-12 30v428q0 18 12 30t30 12h32l-116 116zM896 682v-456l-478 478h264q18 0 31-12t13-30v-150z" />
<glyph unicode="&#xe933;" glyph-name="volume_down" d="M214 576h170l214 214v-684l-214 214h-170v256zM790 448q0-118-108-172v344q44-22 76-73t32-99z" />
<glyph unicode="&#xe934;" glyph-name="volume_mute" d="M298 576h172l212 214v-684l-212 214h-172v256z" />
<glyph unicode="&#xe935;" glyph-name="volume_off" d="M512 790v-180l-90 90zM182 832l714-714-54-54-88 88q-66-56-156-78v88q50 14 96 50l-182 182v-288l-214 214h-170v256h202l-202 202zM810 448q0 102-59 180t-153 106v88q130-28 214-133t84-241q0-94-44-178l-64 66q22 54 22 112zM704 448q0-18-2-26l-104 104v94q44-22 75-72t31-100z" />
<glyph unicode="&#xe936;" glyph-name="volume_up" d="M598 822q130-28 214-133t84-241-84-241-214-133v88q94 28 153 106t59 180-59 180-153 106v88zM704 448q0-120-106-172v344q44-22 75-72t31-100zM128 576h170l214 214v-684l-214 214h-170v256z" />
<glyph unicode="&#xe937;" glyph-name="web" d="M854 192v384h-172v-384h172zM640 406v170h-470v-170h470zM640 192v170h-470v-170h470zM854 790q34 0 59-26t25-60v-512q0-34-25-60t-59-26h-684q-34 0-59 26t-25 60v512q0 34 25 60t59 26h684z" />
<glyph unicode="&#xe938;" glyph-name="hd" d="M618 384v128h86v-128h-86zM554 576v-256h172q18 0 30 12t12 30v172q0 18-12 30t-30 12h-172zM470 320v256h-64v-106h-86v106h-64v-256h64v86h86v-86h64zM810 832q34 0 60-26t26-60v-596q0-34-26-60t-60-26h-596q-36 0-61 25t-25 61v596q0 36 25 61t61 25h596z" />
<glyph unicode="&#xe939;" glyph-name="sort_by_alpha" d="M672 272h260v-68h-364v54l252 366h-250v68h354v-54zM212 378h166l-84 222zM260 692h70l192-488h-78l-40 104h-218l-40-104h-78zM438 134h198l-100-100zM638 762h-202l100 100z" />
<glyph unicode="&#xe93a;" glyph-name="airplay" d="M896 832q34 0 60-26t26-60v-512q0-34-26-59t-60-25h-170v84h170v512h-768v-512h170v-84h-170q-34 0-60 25t-26 59v512q0 34 26 60t60 26h768zM256 22l256 256 256-256h-512z" />
<glyph unicode="&#xe93b;" glyph-name="forward_10" d="M564 312q0-14 20-14 10 0 14 4l8 10q4 8 4 12v86q-4 8-4 12t-9 9-13 5q-6 0-12-6l-8-8q-6-8-6-12v-86q6-8 6-12zM644 354q0-26-4-34l-12-26q-14-12-22-12-4 0-13-2t-13-2q-18 0-26 4-4 2-10 6t-10 6q-18 10-18 60v30q0 26 4 34l14 26q12 12 20 12 4 0 13 2t13 2q18 0 26-4 4-2 11-6t11-6 12-26q4-12 4-34v-30zM466 278h-40v140l-42-12v30l76 24h6v-182zM170 406q0 140 100 240t242 100v172l214-214-214-214v172q-104 0-180-75t-76-181 76-181 180-75 180 75 76 181h86q0-142-101-242t-241-100-241 100-101 242z" />
<glyph unicode="&#xe93c;" glyph-name="forward_30" d="M170 406q0 140 100 240t242 100v172l214-214-214-214v172q-104 0-180-75t-76-181 76-181 180-75 180 75 76 181h86q0-142-101-242t-241-100-241 100-101 242zM568 312q0-14 20-14 10 0 14 4l8 10q4 8 4 12v86q-4 8-4 12t-9 9-13 5q-6 0-12-6l-8-8q-4-8-4-12v-86q4-8 4-12zM652 354q0-26-4-34l-12-26q-14-12-22-12-4 0-13-2t-13-2q-14 0-46 16-4 2-12 26-6 18-6 34v30q0 22 6 34l12 26q14 12 22 12 4 0 12 2t12 2q18 0 26-4 4-2 11-6t11-6 12-26q4-12 4-34v-30zM426 384q30 0 30 26v8q-4 4-4 8t-8 4h-22q-4-4-8-4t-4-8v-8h-44q0 16 11 31t25 15q2 0 10 2t10 2q24 0 48-12 16-8 16-38v-14q-4-8-4-12 0-8-8-8-4 0-14-10 18-10 22-16 8-16 8-26 0-18-4-22-2-2-6-8t-6-8q-8-8-22-8-4 0-13-2t-13-2q-16 0-20 4-2 2-10 4t-12 4q-18 10-18 42h36v-8q4-4 4-8t8-4h22q4 4 8 4t4 8v22q-4 4-4 8t-8 4h-26v30h16z" />
<glyph unicode="&#xe93d;" glyph-name="forward_5" d="M500 380q-14-6-14-8l-4-6h-26l10 94h102v-30h-74l-4-38q4 0 4 4 0 2 3 3t3 3h16q16 0 22-6 2-2 8-6t8-6q18-18 18-46 0-18-4-22-2-2-6-10t-8-12q-16-16-46-16-18 0-22 4-2 2-9 4t-11 4q-18 10-18 38h34q0-20 26-20 8 0 12 4l10 8q4 8 4 12v26l-4 8-10 10q-8 4-12 4h-8zM170 406q0 140 100 240t242 100v172l214-214-214-214v172q-104 0-180-75t-76-181 76-181 180-75 180 75 76 181h86q0-142-101-242t-241-100-241 100-101 242z" />
<glyph unicode="&#xe93e;" glyph-name="replay_10" d="M564 312q0-14 20-14 10 0 14 4l8 10q4 8 4 12v86q-4 8-4 12t-9 9-13 5q-6 0-12-6l-8-8q-6-8-6-12v-86q6-8 6-12zM648 354q0-26-4-34l-12-26q-14-12-22-12-4 0-13-2t-13-2q-18 0-26 4-4 2-10 6t-10 6q-18 10-18 60v30q0 26 4 34l14 26q12 12 20 12 4 0 13 2t13 2q18 0 26-4 4-2 11-6t11-6 12-26q4-12 4-34v-30zM466 278h-40v140l-42-12v30l76 24h6v-182zM512 746q142 0 242-100t100-240q0-142-101-242t-241-100-241 100-101 242h86q0-106 76-181t180-75 180 75 76 181-76 181-180 75v-172l-214 214 214 214v-172z" />
<glyph unicode="&#xe93f;" glyph-name="replay_30" d="M572 312q0-14 22-14 8 0 12 4l8 10q4 8 4 12v86q0 2-2 6t-2 6q0 4-8 9t-12 5q-8 0-14-6l-8-8q-4-8-4-12v-86q4-8 4-12zM652 354q0-26-4-34l-12-26q-14-12-22-12-4 0-13-2t-13-2q-14 0-46 16-4 2-12 26-6 18-6 34v30q0 22 6 34l12 26q14 12 22 12 4 0 12 2t12 2q18 0 26-4 4-2 11-6t11-6 12-26q4-12 4-34v-30zM426 384q30 0 30 26v8q-4 4-4 8t-8 4h-22q-4-4-8-4t-4-8v-8h-44q0 16 11 31t25 15q2 0 10 2t10 2q24 0 48-12 16-8 16-38v-14q-4-8-4-12 0-8-8-8-4 0-14-10 18-10 22-16 8-16 8-26 0-18-4-22-2-2-6-8t-6-8q-8-8-22-8-4 0-13-2t-13-2q-16 0-20 4-2 2-10 4t-12 4q-18 10-18 42h36v-8q4-4 4-8t8-4h22q4 4 8 4t4 8v22q-4 4-4 8t-8 4h-26v30h16zM512 746q142 0 242-100t100-240q0-142-101-242t-241-100-241 100-101 242h86q0-106 76-181t180-75 180 75 76 181-76 181-180 75v-172l-214 214 214 214v-172z" />
<glyph unicode="&#xe940;" glyph-name="replay_5" d="M504 380q-14-6-14-8l-4-6h-30l10 94h102v-30h-74l-4-38q4 0 4 4 0 2 3 3t3 3h16q16 0 22-6 2-2 8-6t8-6q18-18 18-46 0-18-4-22-2-2-6-10t-8-12-9-7-7-5q-4-4-26-4-18 0-22 4-2 2-9 4t-11 4q-18 10-18 38h34q0-20 26-20 8 0 12 4l10 8q4 8 4 12v26l-4 8-10 10q-8 4-12 4h-8zM512 746q142 0 242-100t100-240q0-142-101-242t-241-100-241 100-101 242h86q0-106 76-181t180-75 180 75 76 181-76 181-180 75v-172l-214 214 214 214v-172z" />
<glyph unicode="&#xe941;" glyph-name="add_to_queue" d="M682 534v-86h-128v-128h-84v128h-128v86h128v128h84v-128h128zM896 234v512h-768v-512h768zM896 832q36 0 61-25t25-61l-2-512q0-34-25-59t-59-25h-214v-86h-340v86h-214q-36 0-61 24t-25 60v512q0 36 25 61t61 25h768z" />
<glyph unicode="&#xe942;" glyph-name="fiber_dvr" d="M896 470v42q0 28-18 46t-46 18h-150v-256h64v86h50l36-86h64l-38 90q38 18 38 60zM538 320l76 256h-64l-44-146-42 146h-64l74-256h64zM342 384v128q0 28-19 46t-45 18h-150v-256h150q26 0 45 18t19 46zM896 832q36 0 61-25t25-61v-596q0-36-25-61t-61-25h-768q-36 0-61 25t-25 61v596q0 36 25 61t61 25h768zM192 512h86v-128h-86v128zM746 512h86v-42h-86v42z" />
<glyph unicode="&#xe943;" glyph-name="fiber_new" d="M874 362v214h-52v-192h-48v150h-54v-150h-48v192h-54v-214q0-18 13-30t31-12h170q18 0 30 12t12 30zM576 522v54h-170v-256h170v54h-106v46h106v54h-106v48h106zM362 320v256h-52v-150l-108 150h-52v-256h52v150l110-150h50zM854 790q36 0 60-25t24-61v-512q0-36-24-61t-60-25h-684q-36 0-60 25t-24 61v512q0 36 24 61t60 25h684z" />
<glyph unicode="&#xe944;" glyph-name="playlist_play" d="M598 362l212-128-212-128v256zM170 362h342v-84h-342v84zM170 704h512v-86h-512v86zM170 534h512v-86h-512v86z" />
<glyph unicode="&#xe945;" glyph-name="art_track" d="M448 320l-96 128-74-96-54 64-74-96h298zM512 576v-256q0-34-26-60t-60-26h-256q-34 0-59 26t-25 60v256q0 34 25 60t59 26h256q34 0 60-26t26-60zM598 234v86h340v-86h-340zM938 662v-86h-340v86h340zM938 406h-340v84h340v-84z" />
<glyph unicode="&#xe946;" glyph-name="fiber_manual_record" d="M170 448q0 140 101 241t241 101 241-101 101-241-101-241-241-101-241 101-101 241z" />
<glyph unicode="&#xe947;" glyph-name="fiber_smart_record" d="M726 778q112-28 184-120t72-210-72-210-184-120v88q70 26 120 97t50 145-50 145-120 97v88zM42 448q0 140 101 241t241 101 241-101 101-241-101-241-241-101-241 101-101 241z" />
<glyph unicode="&#xe948;" glyph-name="music_video" d="M342 320q0 52 38 90t90 38q14 0 42-8v264h214v-86h-128v-300q0-52-38-89t-90-37-90 38-38 90zM896 150v596h-768v-596h768zM896 832q34 0 60-26t26-60v-596q0-34-26-60t-60-26h-768q-34 0-60 26t-26 60v596q0 34 26 60t60 26h768z" />
<glyph unicode="&#xe949;" glyph-name="subscriptions" d="M682 278l-256 138v-278zM938 448v-342q0-34-25-59t-59-25h-684q-34 0-59 25t-25 59v342q0 34 25 60t59 26h684q34 0 59-26t25-60zM768 874v-84h-512v84h512zM854 618h-684v86h684v-86z" />
<glyph unicode="&#xe94a;" glyph-name="playlist_add_check" d="M918 470l64-64-298-300-194 192 64 64 130-128zM86 278v84h340v-84h-340zM598 704v-86h-512v86h512zM598 534v-86h-512v86h512z" />
<glyph unicode="&#xe94b;" glyph-name="queue_play_next" d="M1024 192l-192-192-64 64 128 128-128 128 64 64zM554 534h128v-86h-128v-128h-84v128h-128v86h128v128h84v-128zM896 832q36 0 61-25t25-61v-340h-86v340h-768v-512h640v-84h-86v-86h-340v86h-214q-36 0-61 24t-25 60v512q0 36 25 61t61 25h768z" />
<glyph unicode="&#xe94c;" glyph-name="remove_from_queue" d="M682 534v-86h-340v86h340zM896 234v512h-768v-512h768zM896 832q36 0 61-25t25-61l-2-512q0-34-25-59t-59-25h-214v-86h-340v86h-214q-36 0-61 24t-25 60v512q0 36 25 61t61 25h768z" />
<glyph unicode="&#xe94d;" glyph-name="slow_motion_video" d="M938 448q0-164-110-286t-272-138v86q126 16 212 113t86 225-86 225-212 113v86q162-16 272-138t110-286zM242 118l60 60q72-56 168-68v-86q-54 6-121 34t-107 60zM174 406q10-94 68-166l-60-62q-82 102-94 228h86zM242 658q-56-74-68-168h-86q6 54 34 121t60 107zM470 786q-96-12-168-68l-60 60q102 82 228 94v-86zM556 542l126-94q-126-94-256-192z" />
<glyph unicode="&#xe94e;" glyph-name="web_asset" d="M810 192v426h-596v-426h596zM810 790q36 0 61-25t25-61v-512q0-34-26-60t-60-26h-596q-36 0-61 25t-25 61v512q0 36 25 61t61 25h596z" />
<glyph unicode="&#xe94f;" glyph-name="fiber_pin" d="M854 320v256h-54v-150l-106 150h-54v-256h54v150l108-150h52zM534 320v256h-64v-256h64zM384 470v42q0 28-18 46t-46 18h-150v-256h64v86h86q28 0 46 19t18 45zM854 790q36 0 60-25t24-61v-512q0-36-24-61t-60-25h-684q-36 0-60 25t-24 61v512q0 36 24 61t60 25h684zM234 512h86v-42h-86v42z" />
<glyph unicode="&#xe950;" glyph-name="branding_watermark" d="M896 150v256h-384v-256h384zM896 832q34 0 60-26t26-60v-596q0-34-26-60t-60-26h-768q-34 0-60 26t-26 60v596q0 34 26 60t60 26h768z" />
<glyph unicode="&#xe951;" glyph-name="call_to_action" d="M896 150v128h-768v-128h768zM896 832q34 0 60-26t26-60v-596q0-34-26-60t-60-26h-768q-34 0-60 26t-26 60v596q0 34 26 60t60 26h768z" />
<glyph unicode="&#xe952;" glyph-name="featured_play_list" d="M512 662v84h-384v-84h384zM512 490v86h-384v-86h384zM896 832q34 0 60-26t26-60v-596q0-34-26-60t-60-26h-768q-34 0-60 26t-26 60v596q0 34 26 60t60 26h768z" />
<glyph unicode="&#xe953;" glyph-name="featured_video" d="M512 448v298h-384v-298h384zM896 832q34 0 60-26t26-60v-596q0-34-26-60t-60-26h-768q-34 0-60 26t-26 60v596q0 34 26 60t60 26h768z" />
<glyph unicode="&#xe954;" glyph-name="note" d="M640 726v-236h234zM938 534v-342q0-34-25-59t-59-25l-684-2q-34 0-59 26t-25 60v512q0 34 25 60t59 26h512z" />
<glyph unicode="&#xe955;" glyph-name="video_call" d="M598 406v84h-128v128h-86v-128h-128v-84h128v-128h86v128h128zM726 512l170 170v-468l-170 170v-150q0-18-13-30t-31-12h-512q-18 0-30 12t-12 30v428q0 18 12 30t30 12h512q18 0 31-12t13-30v-150z" />
<glyph unicode="&#xe956;" glyph-name="video_label" d="M896 278v468h-768v-468h768zM896 832q34 0 60-26t26-60v-596q0-34-26-60t-60-26h-768q-34 0-60 26t-26 60v596q0 34 26 60t60 26h768z" />
<glyph unicode="&#xe957;" glyph-name="4k" d="M768 320l-96 128 96 128h-74l-76-96v96h-64v-256h64v96l76-96h74zM512 384v64h-42v128h-64v-128h-64v128h-64v-192h128v-64h64v64h42zM810 832q34 0 60-26t26-60v-596q0-34-26-60t-60-26h-596q-34 0-60 26t-26 60v596q0 34 26 60t60 26h596z" />
<glyph unicode="&#xe958;" glyph-name="missed_video_call" d="M426 320l214 214-34 34-180-182-132 134h108v46h-188v-188h46v108zM726 512l170 170v-468l-170 170v-150q0-18-13-30t-31-12h-512q-18 0-30 12t-12 30v428q0 18 12 30t30 12h512q18 0 31-12t13-30v-150z" />
<glyph unicode="&#xe959;" glyph-name="control_camera" d="M384 448q0 52 38 90t90 38 90-38 38-90-38-90-90-38-90 38-38 90zM236 600l76-76-76-76 76-76-76-76-150 152zM360 172l76 76 76-76 76 76 76-76-152-150zM788 296l-76 76 76 76-76 76 76 76 150-152zM664 724l-76-76-76 76-76-76-76 76 152 150z" />
<glyph unicode="&#xe95a;" glyph-name="business" d="M768 320v-86h-86v86h86zM768 490v-84h-86v84h86zM854 150v426h-342v-86h86v-84h-86v-86h86v-86h-86v-84h342zM426 662v84h-84v-84h84zM426 490v86h-84v-86h84zM426 320v86h-84v-86h84zM426 150v84h-84v-84h84zM256 662v84h-86v-84h86zM256 490v86h-86v-86h86zM256 320v86h-86v-86h86zM256 150v84h-86v-84h86zM512 662h426v-598h-852v768h426v-170z" />
<glyph unicode="&#xe95b;" glyph-name="call" d="M854 304q18 0 30-12t12-30v-148q0-50-42-50-298 0-512 214t-214 512q0 42 50 42h148q18 0 30-12t12-30q0-78 24-150 8-26-10-44l-82-72q92-192 294-290l66 84q12 12 30 12 10 0 14-2 72-24 150-24z" />
<glyph unicode="&#xe95c;" glyph-name="call_end" d="M512 576q-104 0-196-30v-132q0-30-24-40-64-30-114-78-12-12-30-12t-30 12l-106 106q-12 12-12 30t12 30q210 200 500 200t500-200q12-12 12-30t-12-30l-106-106q-12-12-30-12t-30 12q-44 42-114 78-24 10-24 38v132q-100 32-196 32z" />
<glyph unicode="&#xe95d;" glyph-name="call_made" d="M384 746h426v-426h-84v282l-496-496-60 60 496 496h-282v84z" />
<glyph unicode="&#xe95e;" glyph-name="call_merge" d="M320 618l192 192 192-192h-150v-272l-256-256-60 60 232 230v238h-150zM726 90l-146 144 60 60 146-144z" />
<glyph unicode="&#xe95f;" glyph-name="call_missed" d="M836 662l60-60-384-384-298 298v-196h-86v342h342v-86h-196l238-238z" />
<glyph unicode="&#xe960;" glyph-name="call_received" d="M854 730l-496-496h282v-84h-426v426h84v-282l496 496z" />
<glyph unicode="&#xe961;" glyph-name="call_split" d="M426 790l-98-98 226-226v-360h-84v324l-202 202-98-98v256h256zM598 790h256v-256l-98 98-124-124-60 60 124 124z" />
<glyph unicode="&#xe962;" glyph-name="chat" d="M768 618v86h-512v-86h512zM598 362v86h-342v-86h342zM256 576v-86h512v86h-512zM854 874q34 0 59-25t25-59v-512q0-34-25-60t-59-26h-598l-170-170v768q0 34 25 59t59 25h684z" />
<glyph unicode="&#xe963;" glyph-name="clear_all" d="M298 662h598v-86h-598v86zM128 234v86h598v-86h-598zM214 406v84h596v-84h-596z" />
<glyph unicode="&#xe964;" glyph-name="comment1" d="M768 618v86h-512v-86h512zM768 490v86h-512v-86h512zM768 362v86h-512v-86h512zM938 790v-768l-170 170h-598q-34 0-59 26t-25 60v512q0 34 25 59t59 25h684q34 0 59-25t25-59z" />
<glyph unicode="&#xe965;" glyph-name="contacts" d="M726 234v64q0 48-73 78t-141 30-141-30-73-78v-64h428zM512 672q-40 0-68-28t-28-68 28-68 68-28 68 28 28 68-28 68-68 28zM854 790q34 0 59-26t25-60v-512q0-34-25-60t-59-26h-684q-34 0-59 26t-25 60v512q0 34 25 60t59 26h684zM170-64v86h684v-86h-684zM854 960v-86h-684v86h684z" />
<glyph unicode="&#xe966;" glyph-name="dialer_sip" d="M854 298q18 0 30-12t12-30v-150q0-18-12-30t-30-12q-300 0-513 213t-213 513q0 18 12 30t30 12h150q18 0 30-12t12-30v-2q0-82 24-150 8-26-10-44l-94-94q40-76 123-159t159-123l94 94q14 14 30 14 6 0 14-4 72-24 152-24zM854 746v44h-44v-44h44zM768 832h128v-128h-86v-86h-42v214zM640 746v-128h-128v44h86v42h-86v128h128v-42h-86v-44h86zM726 832v-214h-44v214h44z" />
<glyph unicode="&#xe967;" glyph-name="dialpad" d="M512 918q34 0 60-26t26-60-26-60-60-26-60 26-26 60 26 60 60 26zM512 662q34 0 60-26t26-60-26-60-60-26-60 26-26 60 26 60 60 26zM768 662q34 0 60-26t26-60-26-60-60-26-60 26-26 60 26 60 60 26zM768 406q34 0 60-26t26-60-26-60-60-26-60 26-26 60 26 60 60 26zM512 406q34 0 60-26t26-60-26-60-60-26-60 26-26 60 26 60 60 26zM768 746q-34 0-60 26t-26 60 26 60 60 26 60-26 26-60-26-60-60-26zM256 406q34 0 60-26t26-60-26-60-60-26-60 26-26 60 26 60 60 26zM256 662q34 0 60-26t26-60-26-60-60-26-60 26-26 60 26 60 60 26zM256 918q34 0 60-26t26-60-26-60-60-26-60 26-26 60 26 60 60 26zM512 150q34 0 60-26t26-60-26-60-60-26-60 26-26 60 26 60 60 26z" />
<glyph unicode="&#xe968;" glyph-name="email" d="M854 618v86l-342-214-342 214v-86l342-212zM854 790q34 0 59-26t25-60v-512q0-34-25-60t-59-26h-684q-34 0-59 26t-25 60v512q0 34 25 60t59 26h684z" />
<glyph unicode="&#xe969;" glyph-name="forum" d="M726 448q0-18-13-30t-31-12h-426l-170-172v598q0 18 12 30t30 12h554q18 0 31-12t13-30v-384zM896 704q18 0 30-12t12-30v-640l-170 170h-470q-18 0-30 12t-12 30v86h554v384h86z" />
<glyph unicode="&#xe96a;" glyph-name="import_export" d="M682 234h128l-170-170-170 170h128v300h84v-300zM384 832l170-170h-128v-300h-84v300h-128z" />
<glyph unicode="&#xe96b;" glyph-name="invert_colors_off" d="M512 742l-98-96-60 60 158 158 242-242q76-76 94-183t-26-201l-310 308v196zM512 124v206l-204 204q-52-68-52-154 0-44 22-96t54-84q76-76 180-76zM882 70l14-16-54-54-116 116q-94-76-214-76-58 0-129 29t-113 71-71 112-29 128q0 50 22 114t54 102l-118 118 54 54q598-598 700-698z" />
<glyph unicode="&#xe96c;" glyph-name="live_help" d="M642 522q40 40 40 96 0 70-50 121t-120 51-120-51-50-121h84q0 34 26 60t60 26 60-26 26-60-26-60l-52-54q-50-54-50-120v-22h84q0 68 50 122zM554 192v86h-84v-86h84zM810 874q34 0 60-25t26-59v-598q0-34-26-60t-60-26h-170l-128-128-128 128h-170q-36 0-61 25t-25 61v598q0 36 25 60t61 24h596z" />
<glyph unicode="&#xe96d;" glyph-name="location_off" d="M500 470q218-216 354-352l-54-54-144 142q-32-48-68-94t-56-68l-20-22q-12 14-32 37t-72 92-91 134-71 147-32 144q0 22 8 66l-136 136 54 54 356-356zM512 682q-46 0-78-36l-138 136q36 38 100 65t116 27q124 0 211-87t87-211q0-96-72-234l-154 156q34 30 34 78 0 44-31 75t-75 31z" />
<glyph unicode="&#xe96e;" glyph-name="location_on" d="M512 470q44 0 75 31t31 75-31 75-75 31-75-31-31-75 31-75 75-31zM512 874q124 0 211-87t87-211q0-62-31-142t-75-150-87-131-73-97l-32-34q-12 14-32 37t-72 92-91 134-71 147-32 144q0 124 87 211t211 87z" />
<glyph unicode="&#xe96f;" glyph-name="message" d="M768 618v86h-512v-86h512zM768 490v86h-512v-86h512zM768 362v86h-512v-86h512zM854 874q34 0 59-25t25-59v-512q0-34-25-60t-59-26h-598l-170-170v768q0 34 25 59t59 25h684z" />
<glyph unicode="&#xe970;" glyph-name="chat_bubble" d="M854 874q34 0 59-25t25-59v-512q0-34-25-60t-59-26h-598l-170-170v768q0 34 25 59t59 25h684z" />
<glyph unicode="&#xe971;" glyph-name="chat_bubble_outline" d="M854 278v512h-684v-598l86 86h598zM854 874q34 0 59-25t25-59v-512q0-34-25-60t-59-26h-598l-170-170v768q0 34 25 59t59 25h684z" />
<glyph unicode="&#xe972;" glyph-name="no_sim" d="M156 794l746-744-56-56-80 82q-24-12-40-12h-428q-34 0-59 26t-25 60v478l-112 112zM810 746v-498l-484 484 100 100h300q34 0 59-26t25-60z" />
<glyph unicode="&#xe973;" glyph-name="phone1" d="M282 500q96-186 282-282l94 94q20 20 44 10 72-24 152-24 18 0 30-12t12-30v-150q0-18-12-30t-30-12q-300 0-513 213t-213 513q0 18 12 30t30 12h150q18 0 30-12t12-30q0-80 24-152 8-26-10-44z" />
<glyph unicode="&#xe974;" glyph-name="portable_wifi_off" d="M140 854l42-44 714-714-54-54-320 322h-2l-8-2q-34 0-60 26t-26 60l2 8-68 68q-18-36-18-76 0-98 84-148l-42-74q-58 34-93 93t-35 129q0 76 40 138l-60 62q-66-92-66-200 0-92 46-171t124-125l-42-74q-98 56-155 155t-57 215q0 148 88 262l-88 90zM512 790q-86 0-160-40l-62 62q100 62 222 62 176 0 301-125t125-301q0-120-62-222l-64 62q42 78 42 160 0 140-101 241t-241 101zM750 352l-70 70q2 8 2 26 0 70-50 120t-120 50q-18 0-26-2l-70 70q44 18 96 18 106 0 181-75t75-181q0-52-18-96z" />
<glyph unicode="&#xe975;" glyph-name="contact_phone" d="M762 362q-16 42-16 86t16 86h70l64 84-84 86q-36-28-71-78t-47-92-12-86 12-86 47-92 71-78l84 86-64 84h-70zM598 192v42q0 58-88 95t-168 37-168-37-88-95v-42h512zM342 704q-52 0-90-38t-38-90 38-90 90-38 90 38 38 90-38 90-90 38zM938 832q34 0 60-26t26-60v-596q0-34-26-60t-60-26h-852q-34 0-60 26t-26 60v596q0 34 26 60t60 26h852z" />
<glyph unicode="&#xe976;" glyph-name="contact_mail" d="M938 448v256h-340v-256h340zM598 192v42q0 58-88 95t-168 37-168-37-88-95v-42h512zM342 704q-52 0-90-38t-38-90 38-90 90-38 90 38 38 90-38 90-90 38zM938 832q34 0 60-26t26-60v-596q0-34-26-60t-60-26h-852q-34 0-60 26t-26 60v596q0 34 26 60t60 26h852zM896 618l-128-84-128 84v44l128-86 128 86v-44z" />
<glyph unicode="&#xe977;" glyph-name="ring_volume" d="M274 542q-148 148-152 150l60 62 152-152zM554 874v-212h-84v212h84zM902 692l-152-150-60 60 152 152zM1012 248q12-12 12-30t-12-30l-106-106q-12-12-30-12t-30 12q-56 52-114 80-24 10-24 38v132q-92 30-196 30t-196-30v-132q0-30-24-40-64-30-114-78-12-12-30-12t-30 12l-106 106q-12 12-12 30t12 30q210 200 500 200 120 0 266-59t234-141z" />
<glyph unicode="&#xe978;" glyph-name="speaker_phone" d="M640 106v342h-256v-342h256zM634 532q20 0 34-14t14-34v-414q0-20-14-34t-34-14h-244q-20 0-34 14t-14 34v414q0 20 14 35t34 15zM512 918q80 0 176-40t154-98l-60-60q-112 112-270 112t-270-112l-60 60q138 138 330 138zM298 658q88 88 214 88t214-88l-62-60q-62 62-152 62t-152-62z" />
<glyph unicode="&#xe979;" glyph-name="stay_current_landscape" d="M810 662h-596v-428h596v428zM44 662q0 34 25 59t59 25h768q34 0 60-25t26-59v-428q0-34-26-59t-60-25h-768q-34 0-60 25t-26 59z" />
<glyph unicode="&#xe97a;" glyph-name="stay_current_portrait" d="M726 150v596h-428v-596h428zM726 916q34 0 59-25t25-59v-768q0-34-25-60t-59-26h-428q-34 0-59 26t-25 60v768q0 34 25 60t59 26z" />
<glyph unicode="&#xe97b;" glyph-name="swap_calls" d="M768 790l170-172h-128v-298q0-70-50-120t-120-50-120 50-50 120v298q0 34-26 60t-60 26-60-26-26-60v-298h128l-170-170-170 170h128v298q0 70 50 121t120 51 120-51 50-121v-298q0-34 26-60t60-26 60 26 26 60v298h-128z" />
<glyph unicode="&#xe97c;" glyph-name="textsms" d="M726 490v86h-86v-86h86zM554 490v86h-84v-86h84zM384 490v86h-86v-86h86zM854 874q34 0 59-25t25-59v-512q0-34-25-60t-59-26h-598l-170-170v768q0 34 25 59t59 25h684z" />
<glyph unicode="&#xe97d;" glyph-name="voicemail" d="M790 320q62 0 105 44t43 106-43 105-105 43-106-43-44-105 44-106 106-44zM234 320q62 0 106 44t44 106-44 105-106 43-105-43-43-105 43-106 105-44zM790 704q98 0 166-68t68-166-68-167-166-69h-556q-98 0-166 69t-68 167 68 166 166 68 167-68 69-166q0-86-54-150h192q-54 64-54 150 0 98 69 166t167 68z" />
<glyph unicode="&#xe97e;" glyph-name="vpn_key" d="M298 362q34 0 60 26t26 60-26 60-60 26-59-26-25-60 25-60 59-26zM540 534h442v-172h-86v-170h-170v170h-186q-26-70-97-120t-145-50q-106 0-181 75t-75 181 75 181 181 75q74 0 145-50t97-120z" />
<glyph unicode="&#xe97f;" glyph-name="phonelink_erase" d="M810 918q34 0 60-26t26-60v-768q0-34-26-60t-60-26h-426q-34 0-60 26t-26 60v128h86v-86h426v684h-426v-86h-86v128q0 34 26 60t60 26h426zM554 610l-170-170 170-172-42-42-170 170-172-170-42 42 170 172-170 170 42 42 172-170 170 170z" />
<glyph unicode="&#xe980;" glyph-name="phonelink_lock" d="M406 490v64q0 24-19 40t-45 16-45-16-19-40v-64h128zM460 490q20 0 36-16t16-38v-150q0-20-17-36t-39-16h-234q-20 0-36 17t-16 39v150q0 20 16 35t36 15v64q0 44 37 76t83 32 82-32 36-76v-64zM810 918q34 0 60-26t26-60v-768q0-34-26-60t-60-26h-426q-34 0-60 26t-26 60v128h86v-86h426v684h-426v-86h-86v128q0 34 26 60t60 26h426z" />
<glyph unicode="&#xe981;" glyph-name="phonelink_ring" d="M598 106v684h-428v-684h428zM598 918q34 0 59-26t25-60v-768q0-34-25-60t-59-26h-428q-34 0-59 26t-25 60v768q0 34 25 60t59 26h428zM768 542q40-42 40-94t-40-90l-42 44q36 50 0 98zM858 632q80-76 80-183t-80-181l-44 44q58 62 58 141t-58 135z" />
<glyph unicode="&#xe982;" glyph-name="phonelink_setup" d="M768 916q34 0 60-25t26-59v-768q0-34-26-60t-60-26h-426q-34 0-60 26t-26 60v128h86v-42h426v596h-426v-42h-86v128q0 34 26 60t60 26zM298 374q32 0 55 21t23 53-23 53-55 21-54-21-22-53 22-53 54-21zM462 428l46-36q8-8 4-14l-44-74q-4-8-14-4l-54 20q-16-10-38-20l-8-56q0-10-10-10h-88q-12 0-12 10l-8 56q-22 10-38 20l-54-20q-10-4-14 4l-42 74q-2 2-1 7t3 7l46 36q0 2-1 9t-1 11 1 10 1 10l-46 36q-6 6-4 14l44 74q4 8 14 4l54-20q16 10 38 20l8 56q0 10 10 10h88q10 0 10-10l10-56q8-4 36-22l56 22q8 4 12-4l44-74q2-2 1-7t-3-7l-46-36q0-2 1-9t1-11-1-11-1-9z" />
<glyph unicode="&#xe983;" glyph-name="present_to_all" d="M426 448h-84l170 170 170-170h-84v-170h-172v170zM896 148v600h-768v-600h768zM896 832q36 0 61-25t25-61v-596q0-36-25-61t-61-25h-768q-36 0-61 25t-25 61v596q0 36 25 61t61 25h768z" />
<glyph unicode="&#xe984;" glyph-name="import_contacts" d="M896 170v492q-66 20-150 20-130 0-234-64v-490q104 64 234 64 78 0 150-22zM746 768q152 0 236-64v-622q0-8-7-15t-15-7q-6 0-10 2-82 44-204 44-130 0-234-64-86 64-234 64-108 0-204-46-2 0-5-1t-5-1q-8 0-15 6t-7 14v626q86 64 236 64 148 0 234-64 86 64 234 64z" />
<glyph unicode="&#xe985;" glyph-name="mail_outline" d="M512 490l342 214h-684zM854 192v426l-342-212-342 212v-426h684zM854 790q34 0 59-26t25-60v-512q0-34-25-60t-59-26h-684q-34 0-59 26t-25 60v512q0 34 25 60t59 26h684z" />
<glyph unicode="&#xe986;" glyph-name="screen_share" d="M554 342l172 160-172 160v-92q-210-30-256-250 86 116 256 116v-94zM854 192h170v-86h-1024v86h170q-36 0-60 25t-24 61v426q0 36 24 61t60 25h684q36 0 60-25t24-61v-426q0-34-25-60t-59-26z" />
<glyph unicode="&#xe987;" glyph-name="stop_screen_share" d="M298 320q58 80 156 104l-68 68q-64-62-88-172zM102 886l842-842-54-54-116 116h-774v86h170q-36 0-60 24t-24 60v428q0 38 28 62l-66 66zM938 276q0-50-44-74l-236 236 68 64-172 158v-90q-4-2-11-2t-11-2l-224 222h546q36 0 60-24t24-60v-428zM906 192h118v-86h-34z" />
<glyph unicode="&#xe988;" glyph-name="call_missed_outgoing" d="M128 602l60 60 324-324 238 238h-196v86h342v-342h-86v196l-298-298z" />
<glyph unicode="&#xe989;" glyph-name="rss_feed" d="M170 530q176 0 300-124t124-300h-122q0 124-89 213t-213 89v122zM170 770q274 0 469-195t195-469h-120q0 226-159 385t-385 159v120zM170 200q0 38 27 65t67 27 66-26 26-66-27-67-65-27q-40 0-67 27t-27 67z" />
<glyph unicode="&#xe98a;" glyph-name="alternate_email" d="M512 320q52 0 90 38t38 90-38 90-90 38-90-38-38-90 38-90 90-38zM512 874q176 0 301-125t125-301v-62q0-64-43-108t-105-44q-78 0-126 64-64-64-152-64t-151 63-63 151 63 151 151 63 151-63 63-151v-62q0-26 19-46t45-20 45 20 19 46v62q0 140-101 241t-241 101-241-101-101-241 101-241 241-101h214v-84h-214q-176 0-301 125t-125 301 125 301 301 125z" />
<glyph unicode="&#xe98b;" glyph-name="mobile_screen_share" d="M546 396q-134 0-204-94 40 180 204 202v72l136-128-136-126v74zM726 150v596h-428v-596h428zM726 916q34 0 59-25t25-59v-768q0-34-25-60t-59-26h-428q-34 0-59 26t-25 60v768q0 34 25 60t59 26z" />
<glyph unicode="&#xe98c;" glyph-name="add_call" d="M896 704v-86h-128v-128h-86v128h-128v86h128v128h86v-128h128zM854 298q18 0 30-12t12-30v-150q0-18-12-30t-30-12q-300 0-513 213t-213 513q0 18 12 30t30 12h150q18 0 30-12t12-30q0-80 24-152 8-26-10-44l-94-94q94-184 282-282l94 94q18 18 44 10 72-24 152-24z" />
<glyph unicode="&#xe98d;" glyph-name="cancel_presentation" d="M622 618l60-60-110-110 110-110-60-60-110 110-110-110-60 60 110 110-110 110 60 60 110-110zM896 832q34 0 60-26t26-60v-596q0-34-26-60t-60-26h-768q-34 0-60 26t-26 60v596q0 34 26 60t60 26h768zM896 146v600h-768v-600h768z" />
<glyph unicode="&#xe98e;" glyph-name="pause_presentation" d="M554 618h86v-340h-86v340zM384 618h86v-340h-86v340zM896 832q34 0 60-26t26-60v-596q0-34-26-60t-60-26h-768q-34 0-60 26t-26 60v596q0 34 26 60t60 26h768zM896 146v600h-768v-600h768z" />
<glyph unicode="&#xe98f;" glyph-name="unsubscribe" d="M512 512l298 150v84l-298-148-298 148v-84zM578 234h-364q-34 0-60 26t-26 60v426q0 34 26 60t60 26h596q34 0 60-26t26-60v-306q-54 30-106 30-88 0-151-63t-63-151q0-4 1-11t1-11zM874 234v44h-170v-44h170zM790 406q62 0 105-44t43-106-43-106-105-44-106 44-44 106 44 106 106 44z" />
<glyph unicode="&#xe990;" glyph-name="cell_wifi" d="M278 598q32 32 89 55t103 23 103-23 89-55l-56-56q-58 58-138 58t-136-58zM386 488q34 34 84 34 48 0 82-34l-82-82zM168 706q124 124 302 124t302-124l-56-54q-102 102-247 102t-247-102zM938 22h-682l682 682v-682z" />
<glyph unicode="&#xe991;" glyph-name="sentiment_satisfied_alt" d="M512 214q-74 0-133 41t-85 107h70q50-84 148-84t148 84h70q-26-66-85-107t-133-41zM512 106q140 0 241 101t101 241-101 241-241 101-241-101-101-241 101-241 241-101zM512 874q176 0 301-125t125-301-125-301-301-125-301 125-125 301 125 301 301 125zM362 490q-26 0-45 19t-19 45 19 45 45 19 45-19 19-45-19-45-45-19zM662 490q-26 0-45 19t-19 45 19 45 45 19 45-19 19-45-19-45-45-19z" />
<glyph unicode="&#xe992;" glyph-name="list_alt" d="M298 320h86v-86h-86v86zM298 490h86v-84h-86v84zM298 662h86v-86h-86v86zM470 320h256v-86h-256v86zM470 490h256v-84h-256v84zM470 662h256v-86h-256v86zM858 832q14 0 26-11t12-27v-692q0-14-12-26t-26-12h-692q-16 0-27 12t-11 26v692q0 38 38 38h692zM810 746h-596v-596h596v596z" />
<glyph unicode="&#xe993;" glyph-name="domain_disabled" d="M512 150h170l-84 84h-86v-84zM426 320v86h-84v-86h84zM426 150v84h-84v-84h84zM256 490v86h-86v-86h86zM256 320v86h-86v-86h86zM256 150v84h-86v-84h86zM56 884l896-892-56-56-128 128h-682v682l-82 82zM682 490h86v-84h-86v84zM342 746v-38l-124 124h294v-170h426v-552l-84 86v380h-342v-38l-124 124h38v84h-84z" />
<glyph unicode="&#xe994;" glyph-name="lightbulb" d="M512 874q124 0 211-87t87-211q0-150-128-244v-98q0-18-12-30t-30-12h-256q-18 0-30 12t-12 30v98q-128 88-128 244 0 124 87 211t211 87zM384 64v42h256v-42q0-18-12-30t-30-12h-172q-18 0-30 12t-12 30z" />
<glyph unicode="&#xe995;" glyph-name="add" d="M810 406h-256v-256h-84v256h-256v84h256v256h84v-256h256v-84z" />
<glyph unicode="&#xe996;" glyph-name="add_box" d="M726 406v84h-172v172h-84v-172h-172v-84h172v-172h84v172h172zM810 832q34 0 60-26t26-60v-596q0-34-26-60t-60-26h-596q-36 0-61 25t-25 61v596q0 36 25 61t61 25h596z" />
<glyph unicode="&#xe997;" glyph-name="add_circle" d="M726 406v84h-172v172h-84v-172h-172v-84h172v-172h84v172h172zM512 874q176 0 301-125t125-301-125-301-301-125-301 125-125 301 125 301 301 125z" />
<glyph unicode="&#xe998;" glyph-name="add_circle_outline" d="M512 106q140 0 241 101t101 241-101 241-241 101-241-101-101-241 101-241 241-101zM512 874q176 0 301-125t125-301-125-301-301-125-301 125-125 301 125 301 301 125zM554 662v-172h172v-84h-172v-172h-84v172h-172v84h172v172h84z" />
<glyph unicode="&#xe999;" glyph-name="archive1" d="M218 746h588l-40 44h-512zM512 214l234 234h-148v86h-172v-86h-148zM876 736q20-24 20-54v-532q0-34-26-60t-60-26h-596q-34 0-60 26t-26 60v532q0 30 20 54l58 72q20 24 50 24h512q30 0 50-24z" />
<glyph unicode="&#xe99a;" glyph-name="backspace" d="M810 294l-152 154 152 154-60 60-152-154-154 154-60-60 154-154-154-154 60-60 154 154 152-154zM938 832q34 0 60-26t26-60v-596q0-34-26-60t-60-26h-640q-40 0-68 38l-230 346 230 346q28 38 68 38h640z" />
<glyph unicode="&#xe99b;" glyph-name="block" d="M512 106q140 0 241 101t101 241q0 48-21 110t-51 100l-480-480q90-72 210-72zM170 448q0-48 21-110t51-100l480 480q-90 72-210 72-140 0-241-101t-101-241zM512 874q176 0 301-125t125-301-125-301-301-125-301 125-125 301 125 301 301 125z" />
<glyph unicode="&#xe99c;" glyph-name="clear" d="M810 686l-238-238 238-238-60-60-238 238-238-238-60 60 238 238-238 238 60 60 238-238 238 238z" />
<glyph unicode="&#xe99d;" glyph-name="content_copy" d="M810 64v598h-468v-598h468zM810 746q34 0 60-25t26-59v-598q0-34-26-60t-60-26h-468q-34 0-60 26t-26 60v598q0 34 26 59t60 25h468zM682 918v-86h-512v-598h-84v598q0 34 25 60t59 26h512z" />
<glyph unicode="&#xe99e;" glyph-name="content_cut" d="M810 832h128v-42l-298-300-86 86zM512 426q22 0 22 22t-22 22-22-22 22-22zM256 106q34 0 60 25t26 61-26 61-60 25-60-25-26-61 26-61 60-25zM256 618q34 0 60 25t26 61-26 61-60 25-60-25-26-61 26-61 60-25zM412 634l526-528v-42h-128l-298 298-100-100q14-30 14-70 0-70-50-120t-120-50-120 50-50 120 50 120 120 50q40 0 70-14l100 100-100 100q-30-14-70-14-70 0-120 50t-50 120 50 120 120 50 120-50 50-120q0-40-14-70z" />
<glyph unicode="&#xe99f;" glyph-name="content_paste" d="M810 106v684h-84v-128h-428v128h-84v-684h596zM512 874q-18 0-30-12t-12-30 12-30 30-12 30 12 12 30-12 30-30 12zM810 874q34 0 60-25t26-59v-684q0-34-26-59t-60-25h-596q-34 0-60 25t-26 59v684q0 34 26 59t60 25h178q14 38 46 62t74 24 74-24 46-62h178z" />
<glyph unicode="&#xe9a0;" glyph-name="create" d="M884 660l-78-78-160 160 78 78q12 12 30 12t30-12l100-100q12-12 12-30t-12-30zM128 224l472 472 160-160-472-472h-160v160z" />
<glyph unicode="&#xe9a1;" glyph-name="drafts" d="M512 406l352 220-352 206-352-206zM938 618v-426q0-34-25-60t-59-26h-684q-34 0-59 26t-25 60v426q0 50 40 74l386 226 386-226q40-24 40-74z" />
<glyph unicode="&#xe9a2;" glyph-name="filter_list" d="M256 406v84h512v-84h-512zM128 704h768v-86h-768v86zM426 192v86h172v-86h-172z" />
<glyph unicode="&#xe9a3;" glyph-name="flag1" d="M614 704h240v-426h-300l-16 84h-240v-298h-84v726h384z" />
<glyph unicode="&#xe9a4;" glyph-name="forward1" d="M512 618v172l342-342-342-342v172h-342v340h342z" />
<glyph unicode="&#xe9a5;" glyph-name="gesture" d="M592 168q28 0 56 37t36 113q-60-16-92-54t-32-64q0-14 10-23t22-9zM196 666l-74 72q20 24 36 40 54 54 116 54 38 0 73-30t35-92q0-60-56-140-56-78-78-150-12-34-7-58t21-24q18 0 48 36 44 44 98 116 96 120 210 120 84 0 125-55t47-123h106v-106h-104q-12-138-74-200t-128-62q-56 0-96 39t-40 93q0 66 60 138t170 92q-2 16-3 22t-6 19-12 19-21 11-34 5q-56 0-174-146-34-42-47-57t-37-35-46-26q-70-22-120 26t-50 120q0 30 11 66t29 70 34 61 31 49 17 24q34 56 12 64-14 6-72-52z" />
<glyph unicode="&#xe9a6;" glyph-name="inbox1" d="M810 320v426h-598v-426h172q0-52 38-90t90-38 90 38 38 90h170zM810 832q36 0 61-25t25-61v-596q0-34-26-60t-60-26h-598q-36 0-60 25t-24 61v596q0 36 24 61t60 25h598z" />
<glyph unicode="&#xe9a7;" glyph-name="link1" d="M726 662q88 0 150-63t62-151-62-151-150-63h-172v82h172q54 0 93 39t39 93-39 93-93 39h-172v82h172zM342 406v84h340v-84h-340zM166 448q0-54 39-93t93-39h172v-82h-172q-88 0-150 63t-62 151 62 151 150 63h172v-82h-172q-54 0-93-39t-39-93z" />
<glyph unicode="&#xe9a8;" glyph-name="redo" d="M786 508l152 154v-384h-384l156 154q-96 80-220 80-102 0-197-68t-127-166l-100 32q44 136 161 222t263 86q170 0 296-110z" />
<glyph unicode="&#xe9a9;" glyph-name="remove1" d="M810 406h-596v84h596v-84z" />
<glyph unicode="&#xe9aa;" glyph-name="remove_circle" d="M726 406v84h-428v-84h428zM512 874q176 0 301-125t125-301-125-301-301-125-301 125-125 301 125 301 301 125z" />
<glyph unicode="&#xe9ab;" glyph-name="remove_circle_outline" d="M512 106q140 0 241 101t101 241-101 241-241 101-241-101-101-241 101-241 241-101zM512 874q176 0 301-125t125-301-125-301-301-125-301 125-125 301 125 301 301 125zM298 490h428v-84h-428v84z" />
<glyph unicode="&#xe9ac;" glyph-name="reply1" d="M426 576q208-30 321-159t149-311q-154 218-470 218v-174l-298 298 298 298v-170z" />
<glyph unicode="&#xe9ad;" glyph-name="reply_all" d="M554 576q208-30 321-159t149-311q-154 218-470 218v-174l-298 298 298 298v-170zM298 618l-170-170 170-170v-128l-298 298 298 298v-128z" />
<glyph unicode="&#xe9ae;" glyph-name="report" d="M554 406v256h-84v-256h84zM512 222q22 0 39 17t17 39-17 38-39 16-39-16-17-38 17-39 39-17zM672 832l224-224v-320l-224-224h-320l-224 224v320l224 224h320z" />
<glyph unicode="&#xe9af;" glyph-name="save1" d="M640 576v170h-426v-170h426zM512 150q52 0 90 38t38 90-38 90-90 38-90-38-38-90 38-90 90-38zM726 832l170-170v-512q0-34-26-60t-60-26h-596q-36 0-61 25t-25 61v596q0 36 25 61t61 25h512z" />
<glyph unicode="&#xe9b0;" glyph-name="select_all" d="M384 576v-256h256v256h-256zM298 234v428h428v-428h-428zM640 746v86h86v-86h-86zM640 64v86h86v-86h-86zM810 234v86h86v-86h-86zM810 576v86h86v-86h-86zM810 64v86h86q0-34-26-60t-60-26zM810 406v84h86v-84h-86zM470 64v86h84v-86h-84zM384 832v-86h-86v86h86zM128 234v86h86v-86h-86zM214 64q-34 0-60 26t-26 60h86v-86zM810 832q34 0 60-26t26-60h-86v86zM554 832v-86h-84v86h84zM128 576v86h86v-86h-86zM298 64v86h86v-86h-86zM128 406v84h86v-84h-86zM128 746q0 34 26 60t60 26v-86h-86z" />
<glyph unicode="&#xe9b1;" glyph-name="send1" d="M86 64v298l640 86-640 86v298l896-384z" />
<glyph unicode="&#xe9b2;" glyph-name="sort1" d="M128 406v84h512v-84h-512zM128 704h768v-86h-768v86zM128 192v86h256v-86h-256z" />
<glyph unicode="&#xe9b3;" glyph-name="text_format" d="M512 704l-80-214h160zM406 414l-40-94h-88l202 470h64l202-470h-88l-40 94h-212zM214 234h596v-84h-596v84z" />
<glyph unicode="&#xe9b4;" glyph-name="undo1" d="M534 618q146 0 262-86t162-222l-100-32q-34 104-123 169t-201 65q-124 0-220-80l156-154h-384v384l152-154q126 110 296 110z" />
<glyph unicode="&#xe9b5;" glyph-name="font_download" d="M680 170h90l-218 556h-80l-218-556h90l48 128h240zM854 874q34 0 59-25t25-59v-684q0-34-25-59t-59-25h-684q-34 0-59 25t-25 59v684q0 34 25 59t59 25h684zM424 384l88 236 88-236h-176z" />
<glyph unicode="&#xe9b6;" glyph-name="move_to_inbox" d="M682 534l-170-172-170 172h84v128h172v-128h84zM810 320v426h-598v-426h172q0-52 38-90t90-38 90 38 38 90h170zM810 832q34 0 60-26t26-60v-596q0-34-26-60t-60-26h-598q-36 0-60 25t-24 61v596q0 36 24 61t60 25h598z" />
<glyph unicode="&#xe9b7;" glyph-name="unarchive" d="M218 746h588l-40 44h-512zM512 554l-234-234h148v-86h172v86h148zM876 738q20-24 20-56v-532q0-34-26-60t-60-26h-596q-36 0-61 25t-25 61v532q0 32 20 56l58 70q20 24 50 24h512q30 0 50-24z" />
<glyph unicode="&#xe9b8;" glyph-name="next_week" d="M470 170l170 172-170 170-44-42 128-128-128-128zM426 746v-84h172v84h-172zM598 832q34 0 59-25t25-61v-84h172q34 0 59-26t25-60v-470q0-34-25-59t-59-25h-684q-34 0-59 25t-25 59v470q0 34 25 60t59 26h172v84q0 34 25 60t59 26h172z" />
<glyph unicode="&#xe9b9;" glyph-name="weekend" d="M768 746q34 0 60-25t26-59v-92q-38-14-62-46t-24-74v-88h-512v88q0 42-24 74t-62 46v92q0 34 26 59t60 25h512zM896 534q34 0 60-26t26-60v-214q0-34-26-59t-60-25h-768q-34 0-60 25t-26 59v214q0 34 26 60t60 26 60-26 26-60v-128h596v128q0 34 26 60t60 26z" />
<glyph unicode="&#xe9ba;" glyph-name="delete_sweep" d="M598 746v-84h-512v84h128l42 44h170l44-44h128zM128 192v426h426v-426q0-34-25-60t-59-26h-256q-34 0-60 26t-26 60zM640 448h256v-86h-256v86zM640 618h298v-84h-298v84zM640 278h170v-86h-170v86z" />
<glyph unicode="&#xe9bb;" glyph-name="low_priority" d="M86 470q0 114 81 195t195 81h150v-84h-150q-80 0-136-56t-56-136 56-136 136-56h22v84l128-128-128-128v86h-22q-114 0-195 82t-81 196zM598 278h340v-86h-340v86zM598 512h340v-86h-340v86zM598 746h340v-84h-340v84z" />
<glyph unicode="&#xe9bc;" glyph-name="outlined_flag" d="M768 362v256h-214l-42 86h-214v-256h256l44-86h170zM598 704h256v-426h-300l-42 84h-214v-298h-84v726h340z" />
<glyph unicode="&#xe9bd;" glyph-name="link_off" d="M86 778l54 54 714-714-54-54-172 170h-74v74l-96 98h-116v84h30l-88 88q-50-6-84-43t-34-87q0-54 39-93t93-39h172v-82h-172q-88 0-150 63t-62 151q0 60 38 118t94 80zM682 490v-84h-8l-84 84h92zM726 662q88 0 150-63t62-151q0-130-116-190l-62 62q42 10 70 46t28 82q0 54-39 93t-93 39h-172v82h172z" />
<glyph unicode="&#xe9be;" glyph-name="report_off" d="M512 222q22 0 39 17t17 39-17 38-39 16-39-16-17-38 17-39 39-17zM950 32l-54-54-154 156-70-70h-320l-224 224v320l70 70-156 154 54 54zM470 662v-40l-164 164 46 46h320l224-224v-320l-46-46-296 294v126h-84z" />
<glyph unicode="&#xe9bf;" glyph-name="save_alt" d="M554 420l112 110 60-60-214-214-214 214 60 60 112-110v412h84v-412zM810 448h86v-298q0-34-26-60t-60-26h-596q-34 0-60 26t-26 60v298h86v-298h596v298z" />
<glyph unicode="&#xe9c0;" glyph-name="ballot" d="M298 362h128v-128h-128v128zM256 192h214v214h-214v-214zM298 662h128v-128h-128v128zM256 490h214v214h-214v-214zM810 64h-596q-34 0-60 26t-26 60v596q0 34 26 60t60 26h596q34 0 60-26t26-60v-596q0-34-26-60t-60-26zM554 256h214v86h-214v-86zM554 554h214v86h-214v-86z" />
<glyph unicode="&#xe9c1;" glyph-name="file_copy" d="M598 448h234l-234 234v-234zM640 746l256-256v-426q0-34-26-60t-60-26h-470q-34 0-59 26t-25 60v598q0 34 26 59t60 25h298zM682 918v-86h-512v-598h-84v598q0 34 25 60t59 26h512z" />
<glyph unicode="&#xe9c2;" glyph-name="how_to_reg" d="M660 86l-148 148 60 60 88-88 218 220 60-60zM470 448q-70 0-121 50t-51 120 51 121 121 51 120-51 50-121-50-120-120-50zM384 234l128-128h-384v86q0 76 117 123t225 47q30 0 42-2z" />
<glyph unicode="&#xe9c3;" glyph-name="how_to_vote" d="M544 862q12 12 30 12 22 0 30-12l212-212q12-12 12-30t-12-30l-272-270q-12-12-30-12t-30 12l-212 210q-12 12-12 30t12 30zM726 620l-152 152-210-212 150-150zM768 406l128-128v-172q0-36-25-60t-61-24h-598q-34 0-59 25t-25 59v172l128 128h36l84-86h-86l-76-86h596l-74 86h-82l84 86h30z" />
<glyph unicode="&#xe9c4;" glyph-name="waves" d="M726 614q58 0 126-34 48-24 86-24v-84q-58 0-126 34-52 26-86 26-36 0-88-26-68-34-126-34t-126 34q-52 26-88 26-34 0-86-26-68-34-126-34v84q38 0 86 24 68 34 126 34t126-34q48-24 88-24t88 24q68 34 126 34zM852 770q52-26 86-26v-82q-58 0-126 34-52 26-86 26-36 0-88-26-68-34-126-34t-126 34q-52 26-88 26-34 0-86-26-68-34-126-34v82q34 0 86 26 68 34 126 34t126-34q52-26 88-26t88 26q68 34 126 34t126-34zM726 424q58 0 126-34 48-24 86-24v-84q-58 0-126 34-52 26-86 26-36 0-88-26-68-34-126-34t-126 34q-52 26-88 26-34 0-86-26-68-34-126-34v84q38 0 86 24 68 34 126 34t126-34q48-24 88-24t88 24q68 34 126 34zM726 236q54 0 126-36 48-24 86-24v-84q-58 0-126 34-52 26-86 26-36 0-88-26-68-34-126-34t-126 34q-52 26-88 26-34 0-86-26-68-34-126-34v84q38 0 86 24 72 36 126 36t126-36q48-24 88-24t88 24q72 36 126 36z" />
<glyph unicode="&#xe9c5;" glyph-name="where_to_vote" d="M446 362l280 282-60 60-220-222-88 90-60-60zM512 874q124 0 211-87t87-211q0-62-31-142t-75-150-87-131-73-97l-32-34q-12 14-32 37t-72 92-91 134-71 147-32 144q0 124 87 211t211 87z" />
<glyph unicode="&#xe9c6;" glyph-name="add_link" d="M810 448v-128h128v-86h-128v-128h-84v128h-128v86h128v128h84zM166 448q0-54 39-93t93-39h172v-82h-172q-88 0-150 63t-62 151 62 151 150 63h172v-82h-172q-54 0-93-39t-39-93zM858 448q0 54-39 93t-93 39h-172v82h172q88 0 150-63t62-151h-80zM342 490h340v-84h-340v84z" />
<glyph unicode="&#xe9c7;" glyph-name="inventory" d="M854 662v128h-684v-128h684zM640 362v86h-256v-86h256zM854 874q32 0 58-25t26-59v-130q0-48-42-72v-482q0-34-28-59t-58-25h-596q-30 0-58 25t-28 59v482q-42 24-42 72v130q0 34 26 59t58 25h684z" />
<glyph unicode="&#xe9c8;" glyph-name="access_alarm" d="M512 106q124 0 211 88t87 212-87 211-211 87-211-87-87-211 87-212 211-88zM512 790q160 0 272-113t112-271-112-271-272-113-272 113-112 271 112 271 272 113zM534 618v-224l170-100-32-52-202 120v256h64zM336 816l-196-164-54 64 196 164zM938 716l-54-66-196 166 54 64z" />
<glyph unicode="&#xe9c9;" glyph-name="access_alarms" d="M512 106q124 0 211 88t87 212-87 211-211 87-211-87-87-211 87-212 211-88zM512 790q160 0 272-112t112-272-112-272-272-112-272 112-112 272 112 272 272 112zM534 618v-226l170-102-34-52-200 124v256h64zM338 814l-198-162-54 64 196 162zM938 716l-54-64-198 168 56 64z" />
<glyph unicode="&#xe9ca;" glyph-name="access_time" d="M534 662v-224l192-114-32-54-224 136v256h64zM512 106q140 0 241 101t101 241-101 241-241 101-241-101-101-241 101-241 241-101zM512 874q176 0 301-125t125-301-125-301-301-125-301 125-125 301 125 301 301 125z" />
<glyph unicode="&#xe9cb;" glyph-name="add_alarm" d="M554 576v-128h128v-86h-128v-128h-84v128h-128v86h128v128h84zM512 106q124 0 211 88t87 212-87 211-211 87-211-87-87-211 87-212 211-88zM512 790q160 0 272-113t112-271-112-271-272-113-272 113-112 271 112 271 272 113zM938 716l-54-66-196 166 54 64zM336 816l-196-164-54 64 196 164z" />
<glyph unicode="&#xe9cc;" glyph-name="airplanemode_off" d="M128 736l54 54 672-672-54-54-246 244v-158l86-64v-64l-150 42-148-42v64l84 64v234l-340-106v84l254 160zM554 576l342-214v-84l-136 42-334 334v156q0 26 19 45t45 19 45-19 19-45v-234z" />
<glyph unicode="&#xe9cd;" glyph-name="airplanemode_on" d="M896 278l-342 106v-234l86-64v-64l-150 42-148-42v64l84 64v234l-340-106v84l340 214v234q0 26 19 45t45 19 45-19 19-45v-234l342-214v-84z" />
<glyph unicode="&#xe9ce;" glyph-name="battery_alert" d="M554 362v214h-84v-214h84zM554 192v86h-84v-86h84zM668 790q24 0 41-17t17-41v-654q0-24-17-40t-41-16h-312q-24 0-41 16t-17 40v654q0 24 17 41t41 17h70v84h172v-84h70z" />
<glyph unicode="&#xe9cf;" glyph-name="battery_charging_full" d="M470 106l170 320h-86v236l-170-320h86v-236zM668 790q24 0 41-17t17-41v-654q0-24-17-40t-41-16h-312q-24 0-41 16t-17 40v654q0 24 17 41t41 17h70v84h172v-84h70z" />
<glyph unicode="&#xe9d0;" glyph-name="battery_full" d="M668 790q24 0 41-17t17-41v-654q0-24-17-40t-41-16h-312q-24 0-41 16t-17 40v654q0 24 17 41t41 17h70v84h172v-84h70z" />
<glyph unicode="&#xe9d1;" glyph-name="battery_unknown" d="M610 418q30 30 30 72 0 52-38 90t-90 38-90-38-38-90h64q0 26 18 45t46 19 46-19 18-45-18-44l-40-40q-40-40-40-86h68q0 32 36 68zM552 194v82h-80v-82h80zM668 790q24 0 41-17t17-41v-654q0-24-17-40t-41-16h-312q-24 0-41 16t-17 40v654q0 24 17 41t41 17h70v84h172v-84h70z" />
<glyph unicode="&#xe9d2;" glyph-name="bluetooth1" d="M634 264l-80 82v-162zM554 712v-162l80 82zM756 632l-184-184 184-184-244-242h-42v324l-196-196-60 60 238 238-238 238 60 60 196-196v324h42z" />
<glyph unicode="&#xe9d3;" glyph-name="bluetooth_connected" d="M810 534l86-86-86-86-84 86zM634 264l-80 82v-162zM554 712v-162l80 82zM756 632l-184-184 184-184-244-242h-42v324l-196-196-60 60 238 238-238 238 60 60 196-196v324h42zM298 448l-84-86-86 86 86 86z" />
<glyph unicode="&#xe9d4;" glyph-name="bluetooth_disabled" d="M554 184l80 80-80 82v-162zM230 790l624-624-60-60-98 98-184-182h-42v324l-196-196-60 60 238 238-282 282zM554 712v-138l-84 86v214h42l244-242-130-130-60 60 68 70z" />
<glyph unicode="&#xe9d5;" glyph-name="bluetooth_searching" d="M550 264l-80 82v-162zM470 712v-162l80 82zM670 632l-184-184 184-184-244-242h-42v324l-196-196-60 60 238 238-238 238 60 60 196-196v324h42zM834 674q62-100 62-222 0-120-66-226l-50 50q42 84 42 172t-42 172zM608 448l98 98q20-50 20-98 0-50-20-100z" />
<glyph unicode="&#xe9d6;" glyph-name="brightness_auto" d="M610 278h82l-138 384h-84l-138-384h82l30 84h136zM854 590l140-142-140-142v-200h-200l-142-140-142 140h-200v200l-140 142 140 142v200h200l142 140 142-140h200v-200zM462 420l50 156 50-156h-100z" />
<glyph unicode="&#xe9d7;" glyph-name="brightness_high" d="M512 618q70 0 120-50t50-120-50-120-120-50-120 50-50 120 50 120 120 50zM512 192q106 0 181 75t75 181-75 181-181 75-181-75-75-181 75-181 181-75zM854 590l140-142-140-142v-200h-200l-142-140-142 140h-200v200l-140 142 140 142v200h200l142 140 142-140h200v-200z" />
<glyph unicode="&#xe9d8;" glyph-name="brightness_low" d="M512 192q106 0 181 75t75 181-75 181-181 75-181-75-75-181 75-181 181-75zM854 306v-200h-200l-142-140-142 140h-200v200l-140 142 140 142v200h200l142 140 142-140h200v-200l140-142z" />
<glyph unicode="&#xe9d9;" glyph-name="brightness_medium" d="M512 192q106 0 181 75t75 181-75 181-181 75v-512zM854 306v-200h-200l-142-140-142 140h-200v200l-140 142 140 142v200h200l142 140 142-140h200v-200l140-142z" />
<glyph unicode="&#xe9da;" glyph-name="data_usage" d="M512 150q58 0 126 33t106 79l112-66q-128-174-344-174-176 0-301 125t-125 301q0 166 111 287t273 137v-128q-108-16-182-100t-74-196q0-124 87-211t211-87zM554 872q162-16 273-137t111-287q0-96-36-174l-112 66q20 56 20 108 0 112-74 196t-182 100v128z" />
<glyph unicode="&#xe9db;" glyph-name="developer_mode" d="M726 150v84h84v-170q0-34-25-60t-59-26h-428q-34 0-59 26t-25 60v170h84v-84h428zM426 312l-60-60-196 196 196 196 60-60-134-136zM658 252l-60 60 134 136-134 136 60 60 196-196zM298 746v-84h-84v170q0 34 25 60t59 26l428-2q34 0 59-25t25-59v-170h-84v84h-428z" />
<glyph unicode="&#xe9dc;" glyph-name="devices" d="M938 234v300h-170v-300h170zM982 618q18 0 30-12t12-30v-426q0-18-12-31t-30-13h-256q-18 0-31 13t-13 31v426q0 18 13 30t31 12h256zM170 704v-470h428v-128h-598v128h86v470q0 34 25 60t59 26h768v-86h-768z" />
<glyph unicode="&#xe9dd;" glyph-name="dvr" d="M298 448v-86h-84v86h84zM298 618v-84h-84v84h84zM810 448v-86h-468v86h468zM810 618v-84h-468v84h468zM896 234v512h-768v-512h768zM896 832q34 0 60-26t26-60l-2-512q0-34-25-59t-59-25h-214v-86h-340v86h-214q-34 0-60 25t-26 59v512q0 34 26 60t60 26h768z" />
<glyph unicode="&#xe9de;" glyph-name="gps_fixed" d="M512 150q124 0 211 87t87 211-87 211-211 87-211-87-87-211 87-211 211-87zM894 490h88v-84h-88q-14-126-114-226t-226-114v-88h-84v88q-126 14-226 114t-114 226h-88v84h88q14 126 114 226t226 114v88h84v-88q126-14 226-114t114-226zM512 618q70 0 120-50t50-120-50-120-120-50-120 50-50 120 50 120 120 50z" />
<glyph unicode="&#xe9df;" glyph-name="gps_not_fixed" d="M512 150q124 0 211 87t87 211-87 211-211 87-211-87-87-211 87-211 211-87zM894 490h88v-84h-88q-14-126-114-226t-226-114v-88h-84v88q-126 14-226 114t-114 226h-88v84h88q14 126 114 226t226 114v88h84v-88q126-14 226-114t114-226z" />
<glyph unicode="&#xe9e0;" glyph-name="gps_off" d="M694 212l-418 418q-26-34-44-87t-18-95q0-124 87-211t211-87q42 0 95 18t87 44zM128 778l54 54 714-714-54-54-88 88q-90-74-200-86v-88h-84v88q-126 14-226 114t-114 226h-88v84h88q4 46 30 105t56 95zM894 490h88v-84h-88q-10-78-42-136l-64 64q22 54 22 114 0 124-87 211t-211 87q-60 0-114-22l-64 64q62 32 136 42v88h84v-88q126-14 226-114t114-226z" />
<glyph unicode="&#xe9e1;" glyph-name="graphic_eq" d="M810 534h86v-172h-86v172zM640 192v512h86v-512h-86zM128 362v172h86v-172h-86zM470 22v852h84v-852h-84zM298 192v512h86v-512h-86z" />
<glyph unicode="&#xe9e2;" glyph-name="network_cell" d="M938 22h-852l852 852v-852z" />
<glyph unicode="&#xe9e3;" glyph-name="network_wifi" d="M872 494l2-2-362-448-362 448 2 2-136 168q242 170 496 170t496-170z" />
<glyph unicode="&#xe9e4;" glyph-name="nfc" d="M768 704v-512h-512v512h170v-86h-84v-340h340v340h-128v-96q44-24 44-74 0-34-26-60t-60-26-60 26-26 60q0 50 44 74v96q0 34 25 60t59 26h214zM854 106v684h-684v-684h684zM854 874q34 0 59-25t25-59v-684q0-34-25-59t-59-25h-684q-34 0-59 25t-25 59v684q0 34 25 59t59 25h684z" />
<glyph unicode="&#xe9e5;" glyph-name="now_wallpaper" d="M170 406v-300h300v-84h-300q-34 0-59 25t-25 59v300h84zM854 106v300h84v-300q0-34-25-59t-59-25h-300v84h300zM854 874q34 0 59-25t25-59v-300h-84v300h-300v84h300zM726 598q0-26-19-45t-45-19-45 19-19 45 19 45 45 19 45-19 19-45zM426 406l128-158 86 114 128-170h-512zM170 790v-300h-84v300q0 34 25 59t59 25h300v-84h-300z" />
<glyph unicode="&#xe9e6;" glyph-name="now_widgets" d="M710 888l242-242-242-240h186v-342h-342v342h156l-240 240v-156h-342v342h342v-186zM128 64v342h342v-342h-342z" />
<glyph unicode="&#xe9e7;" glyph-name="screen_lock_landscape" d="M460 534v-44h104v44q0 20-15 35t-37 15-37-15-15-35zM426 278q-18 0-30 12t-12 30v128q0 18 12 30t30 12v44q0 36 25 60t61 24 61-24 25-60v-44q18 0 30-12t12-30v-128q0-18-12-30t-30-12h-172zM810 234v428h-596v-428h596zM896 746q34 0 60-25t26-59v-428q0-34-26-59t-60-25h-768q-34 0-60 25t-26 59v428q0 34 26 59t60 25h768z" />
<glyph unicode="&#xe9e8;" glyph-name="screen_lock_portrait" d="M726 150v596h-428v-596h428zM726 918q34 0 59-26t25-60v-768q0-34-25-60t-59-26h-428q-34 0-59 26t-25 60v768q0 34 25 60t59 26h428zM460 534v-44h104v44q0 20-15 35t-37 15-37-15-15-35zM426 278q-18 0-30 12t-12 30v128q0 18 12 30t30 12v44q0 36 25 60t61 24 61-24 25-60v-44q18 0 30-12t12-30v-128q0-18-12-30t-30-12h-172z" />
<glyph unicode="&#xe9e9;" glyph-name="screen_lock_rotation" d="M716 854v-22h146v22q0 30-21 51t-51 21-52-21-22-51zM682 576q-18 0-30 12t-12 30v172q0 18 12 30t30 12v22q0 44 32 75t76 31 75-31 31-75v-22q18 0 30-12t12-30v-172q0-18-12-30t-30-12h-214zM362 86l56 56 162-162-28-2q-200 0-347 136t-163 334h64q10-106 85-212t171-150zM992 416q20-18 20-45t-20-47l-272-270q-18-20-44-20t-46 20l-512 512q-20 20-20 46 0 24 20 44l270 272q18 18 46 18t46-18l104-104-60-60-90 88-242-240 484-484 240 242-94 94 60 60z" />
<glyph unicode="&#xe9ea;" glyph-name="screen_rotation" d="M320 44l58 56 162-162-28-2q-200 0-347 136t-163 334h64q10-106 84-212t170-150zM632 56l272 272-512 512-272-272zM436 886l514-514q20-18 20-44t-20-46l-272-272q-18-20-44-20t-46 20l-514 514q-18 18-18 44 0 28 18 46l272 272q18 18 46 18 26 0 44-18zM704 852l-58-56-162 162 28 2q200 0 347-136t163-334h-64q-12 120-80 216t-174 146z" />
<glyph unicode="&#xe9eb;" glyph-name="sd_storage" d="M768 618v172h-86v-172h86zM640 618v172h-86v-172h86zM512 618v172h-86v-172h86zM768 874q34 0 60-25t26-59v-684q0-34-26-59t-60-25h-512q-34 0-60 25t-26 59l2 512 254 256h342z" />
<glyph unicode="&#xe9ec;" glyph-name="settings_system_daydream" d="M896 148v600h-768v-600h768zM896 832q34 0 60-26t26-60v-596q0-34-26-60t-60-26h-768q-34 0-60 26t-26 60v596q0 34 26 60t60 26h768zM384 278q-52 0-90 38t-38 90q0 48 33 85t81 41h8q42 86 134 86 56 0 98-37t50-91h2q44 0 75-31t31-75-31-75-75-31h-278z" />
<glyph unicode="&#xe9ed;" glyph-name="signal_cellular_4_bar" d="M86 22l852 852v-852h-852z" />
<glyph unicode="&#xe9ee;" glyph-name="signal_cellular_connected_no_internet_4_bar" d="M86 22l852 852v-256h-170v-596h-682zM854 22v84h84v-84h-84zM854 192v342h84v-342h-84z" />
<glyph unicode="&#xe9ef;" glyph-name="signal_cellular_null" d="M938 874v-852h-852zM854 668l-562-562h562v562z" />
<glyph unicode="&#xe9f0;" glyph-name="signal_cellular_off" d="M204 768l734-736-54-54-84 86h-758l378 378-270 272zM896 918v-734l-366 366z" />
<glyph unicode="&#xe9f1;" glyph-name="signal_wifi_4_bar" d="M512 44l-496 618q242 170 496 170t496-170z" />
<glyph unicode="&#xe9f2;" glyph-name="signal_wifi_4_bar_lock" d="M662 342v-112l-150-188-494 620 12 10q12 8 25 17t35 23 47 26 57 27 68 26 75 21 84 15 91 5 91-5 84-15 75-21 68-26 57-27 47-26 35-23 25-17l12-10-88-112q-12 4-44 4-90 0-151-61t-61-151zM938 278v64q0 26-19 45t-45 19-45-19-19-45v-64h128zM982 278q16 0 29-14t13-30v-170q0-16-13-29t-29-13h-214q-16 0-29 13t-13 29v170q0 16 13 30t29 14v64q0 46 30 76t76 30 77-31 31-75v-64z" />
<glyph unicode="&#xe9f3;" glyph-name="signal_wifi_off" d="M140 898q24-24 307-306t427-430l-54-54-142 142-166-206-496 618q66 54 156 94l-86 88zM1008 662l-232-290-442 440q90 20 178 20 254 0 496-170z" />
<glyph unicode="&#xe9f4;" glyph-name="storage" d="M170 490v-84h86v84h-86zM86 362v172h852v-172h-852zM256 662v84h-86v-84h86zM86 790h852v-172h-852v172zM170 234v-84h86v84h-86zM86 106v172h852v-172h-852z" />
<glyph unicode="&#xe9f5;" glyph-name="usb1" d="M640 662h170v-172h-42v-84q0-36-25-61t-61-25h-128v-130q52-28 52-84 0-38-27-66t-67-28-67 28-27 66q0 56 52 84v130h-128q-36 0-61 25t-25 61v88q-52 28-52 82 0 40 28 67t66 27 66-27 28-67q0-56-50-82v-88h128v340h-86l128 172 128-172h-86v-340h128v84h-42v172z" />
<glyph unicode="&#xe9f6;" glyph-name="wifi_lock" d="M938 278v64q0 26-19 45t-45 19-45-19-19-45v-64h128zM982 278q18 0 30-13t12-31v-170q0-18-12-30t-30-12h-214q-18 0-30 12t-12 30v170q0 18 12 31t30 13v64q0 44 31 75t75 31 76-31 32-75v-64zM874 554q-88 0-150-62t-62-150v-122l-150-198-512 682q224 170 512 170t512-170l-114-152q-12 2-36 2z" />
<glyph unicode="&#xe9f7;" glyph-name="wifi_tethering" d="M512 832q176 0 301-124t125-302q0-116-57-215t-155-155l-44 74q78 46 125 125t47 171q0 140-100 240t-242 100-242-100-100-240q0-94 46-172t124-124l-42-74q-98 56-155 155t-57 215q0 178 125 302t301 124zM768 406q0-70-35-129t-93-93l-42 74q84 50 84 148 0 70-50 120t-120 50-120-50-50-120q0-98 84-148l-42-74q-58 34-93 93t-35 129q0 106 75 181t181 75 181-75 75-181zM512 490q34 0 60-25t26-59-26-60-60-26-60 26-26 60 26 59 60 25z" />
<glyph unicode="&#xe9f8;" glyph-name="add_to_home_screen" d="M426 320v154l-238-240-60 60 238 240h-152v84h298v-298h-86zM768 916q34 0 60-25t26-59v-768q0-34-26-60t-60-26h-426q-34 0-60 26t-26 60v128h86v-42h426v596h-426v-42h-86v128q0 34 26 60t60 26z" />
<glyph unicode="&#xe9f9;" glyph-name="device_thermostat" d="M470 746v-256h84v86h-42v42h42v86h-42v42h42q0 18-12 31t-30 13-30-13-12-31zM640 406q86-62 86-172 0-88-63-150t-151-62-151 62-63 150q0 110 86 172v340q0 52 38 90t90 38 90-38 38-90v-340z" />
<glyph unicode="&#xe9fa;" glyph-name="mobile_friendly" d="M300 386l252 252 54-54-308-306-162 162 54 54zM810 918q34 0 60-26t26-60v-768q0-34-26-60t-60-26h-426q-34 0-60 26t-26 60v128h86v-86h426v684h-426v-86h-86v128q0 34 26 60t60 26h426z" />
<glyph unicode="&#xe9fb;" glyph-name="mobile_off" d="M726 746h-392l-116 116q20 56 80 56h428q34 0 59-26t25-60v-562l-84 86v390zM298 150h416l-416 414v-414zM118 854l820-820-54-54-74 74q-4-32-28-54t-56-22h-428q-34 0-59 26t-25 60v586l-150 150z" />
<glyph unicode="&#xe9fc;" glyph-name="signal_cellular_alt" d="M470 576h128v-470h-128v470zM214 362h128v-256h-128v256zM726 790h128v-684h-128v684z" />
<glyph unicode="&#xe9fd;" glyph-name="attach_file" d="M704 704h64v-490q0-98-68-167t-166-69-167 69-69 167v532q0 70 51 121t121 51 120-51 50-121v-448q0-44-31-75t-75-31-76 31-32 75v406h64v-406q0-18 13-30t31-12 30 12 12 30v448q0 44-31 76t-75 32-76-32-32-76v-532q0-70 51-121t121-51 120 51 50 121v490z" />
<glyph unicode="&#xe9fe;" glyph-name="attach_money" d="M504 494q44-12 73-24t61-33 49-53 17-76q0-62-41-101t-109-51v-92h-128v92q-66 14-109 56t-47 108h94q8-90 126-90 62 0 89 23t27 53q0 72-128 104-200 46-200 176 0 58 42 99t106 55v92h128v-94q66-16 101-60t37-102h-94q-4 90-108 90-52 0-83-22t-31-58q0-58 128-92z" />
<glyph unicode="&#xe9ff;" glyph-name="border_all" d="M810 490v256h-256v-256h256zM810 150v256h-256v-256h256zM470 490v256h-256v-256h256zM470 150v256h-256v-256h256zM128 832h768v-768h-768v768z" />
<glyph unicode="&#xea00;" glyph-name="border_bottom" d="M214 320v-86h-86v86h86zM128 64v86h768v-86h-768zM214 490v-84h-86v84h86zM810 576v86h86v-86h-86zM810 832h86v-86h-86v86zM214 662v-86h-86v86h86zM810 234v86h86v-86h-86zM810 406v84h86v-84h-86zM726 832v-86h-86v86h86zM554 832v-86h-84v86h84zM726 490v-84h-86v84h86zM554 662v-86h-84v86h84zM214 832v-86h-86v86h86zM554 490v-84h-84v84h84zM384 832v-86h-86v86h86zM554 320v-86h-84v86h84zM384 490v-84h-86v84h86z" />
<glyph unicode="&#xea01;" glyph-name="border_clear" d="M640 746v86h86v-86h-86zM640 406v84h86v-84h-86zM640 64v86h86v-86h-86zM470 746v86h84v-86h-84zM810 832h86v-86h-86v86zM470 576v86h84v-86h-84zM810 576v86h86v-86h-86zM810 64v86h86v-86h-86zM810 406v84h86v-84h-86zM810 234v86h86v-86h-86zM470 406v84h84v-84h-84zM128 746v86h86v-86h-86zM128 576v86h86v-86h-86zM128 406v84h86v-84h-86zM128 234v86h86v-86h-86zM128 64v86h86v-86h-86zM470 64v86h84v-86h-84zM470 234v86h84v-86h-84zM298 64v86h86v-86h-86zM298 406v84h86v-84h-86zM298 746v86h86v-86h-86z" />
<glyph unicode="&#xea02;" glyph-name="border_color" d="M0 106h1024v-170h-1024v170zM884 788l-84-84-160 160 84 84q12 12 30 12t30-12l100-100q12-12 12-30t-12-30zM758 662l-428-428h-160v160l428 428z" />
<glyph unicode="&#xea03;" glyph-name="border_horizontal" d="M810 64v86h86v-86h-86zM640 64v86h86v-86h-86zM470 234v86h84v-86h-84zM810 576v86h86v-86h-86zM810 832h86v-86h-86v86zM128 406v84h768v-84h-768zM470 64v86h84v-86h-84zM810 234v86h86v-86h-86zM554 832v-86h-84v86h84zM554 662v-86h-84v86h84zM726 832v-86h-86v86h86zM384 832v-86h-86v86h86zM214 832v-86h-86v86h86zM298 64v86h86v-86h-86zM128 234v86h86v-86h-86zM214 662v-86h-86v86h86zM128 64v86h86v-86h-86z" />
<glyph unicode="&#xea04;" glyph-name="border_inner" d="M810 234v86h86v-86h-86zM810 64v86h86v-86h-86zM554 832v-342h342v-84h-342v-342h-84v342h-342v84h342v342h84zM640 64v86h86v-86h-86zM810 832h86v-86h-86v86zM810 576v86h86v-86h-86zM726 832v-86h-86v86h86zM214 832v-86h-86v86h86zM384 832v-86h-86v86h86zM128 234v86h86v-86h-86zM214 662v-86h-86v86h86zM298 64v86h86v-86h-86zM128 64v86h86v-86h-86z" />
<glyph unicode="&#xea05;" glyph-name="border_left" d="M640 746v86h86v-86h-86zM640 406v84h86v-84h-86zM810 64v86h86v-86h-86zM810 406v84h86v-84h-86zM810 832h86v-86h-86v86zM810 234v86h86v-86h-86zM640 64v86h86v-86h-86zM810 576v86h86v-86h-86zM128 64v768h86v-768h-86zM298 406v84h86v-84h-86zM298 746v86h86v-86h-86zM298 64v86h86v-86h-86zM470 406v84h84v-84h-84zM470 576v86h84v-86h-84zM470 746v86h84v-86h-84zM470 234v86h84v-86h-84zM470 64v86h84v-86h-84z" />
<glyph unicode="&#xea06;" glyph-name="border_outer" d="M384 490v-84h-86v84h86zM554 320v-86h-84v86h84zM810 150v596h-596v-596h596zM128 832h768v-768h-768v768zM726 490v-84h-86v84h86zM554 490v-84h-84v84h84zM554 662v-86h-84v86h84z" />
<glyph unicode="&#xea07;" glyph-name="border_right" d="M470 576v86h84v-86h-84zM470 746v86h84v-86h-84zM470 406v84h84v-84h-84zM640 746v86h86v-86h-86zM640 64v86h86v-86h-86zM810 832h86v-768h-86v768zM640 406v84h86v-84h-86zM470 234v86h84v-86h-84zM128 576v86h86v-86h-86zM128 234v86h86v-86h-86zM128 406v84h86v-84h-86zM470 64v86h84v-86h-84zM128 64v86h86v-86h-86zM298 406v84h86v-84h-86zM298 746v86h86v-86h-86zM128 746v86h86v-86h-86zM298 64v86h86v-86h-86z" />
<glyph unicode="&#xea08;" glyph-name="border_style" d="M810 576v86h86v-86h-86zM128 832h768v-86h-682v-682h-86v768zM810 406v84h86v-84h-86zM810 234v86h86v-86h-86zM470 64v86h84v-86h-84zM298 64v86h86v-86h-86zM810 64v86h86v-86h-86zM640 64v86h86v-86h-86z" />
<glyph unicode="&#xea09;" glyph-name="border_top" d="M640 406v84h86v-84h-86zM810 64v86h86v-86h-86zM470 576v86h84v-86h-84zM640 64v86h86v-86h-86zM810 234v86h86v-86h-86zM128 832h768v-86h-768v86zM810 406v84h86v-84h-86zM810 576v86h86v-86h-86zM470 234v86h84v-86h-84zM128 576v86h86v-86h-86zM128 406v84h86v-84h-86zM128 64v86h86v-86h-86zM128 234v86h86v-86h-86zM470 64v86h84v-86h-84zM470 406v84h84v-84h-84zM298 406v84h86v-84h-86zM298 64v86h86v-86h-86z" />
<glyph unicode="&#xea0a;" glyph-name="border_vertical" d="M640 406v84h86v-84h-86zM640 64v86h86v-86h-86zM640 746v86h86v-86h-86zM810 576v86h86v-86h-86zM810 832h86v-86h-86v86zM810 406v84h86v-84h-86zM810 64v86h86v-86h-86zM470 64v768h84v-768h-84zM810 234v86h86v-86h-86zM298 746v86h86v-86h-86zM128 234v86h86v-86h-86zM128 64v86h86v-86h-86zM128 406v84h86v-84h-86zM298 406v84h86v-84h-86zM298 64v86h86v-86h-86zM128 746v86h86v-86h-86zM128 576v86h86v-86h-86z" />
<glyph unicode="&#xea0b;" glyph-name="format_align_center" d="M128 832h768v-86h-768v86zM298 662h428v-86h-428v86zM128 406v84h768v-84h-768zM128 64v86h768v-86h-768zM298 320h428v-86h-428v86z" />
<glyph unicode="&#xea0c;" glyph-name="format_align_justify" d="M128 832h768v-86h-768v86zM128 576v86h768v-86h-768zM128 406v84h768v-84h-768zM128 234v86h768v-86h-768zM128 64v86h768v-86h-768z" />
<glyph unicode="&#xea0d;" glyph-name="format_align_left" d="M128 832h768v-86h-768v86zM128 64v86h768v-86h-768zM128 406v84h768v-84h-768zM640 662v-86h-512v86h512zM640 320v-86h-512v86h512z" />
<glyph unicode="&#xea0e;" glyph-name="format_align_right" d="M128 832h768v-86h-768v86zM384 576v86h512v-86h-512zM128 406v84h768v-84h-768zM384 234v86h512v-86h-512zM128 64v86h768v-86h-768z" />
<glyph unicode="&#xea0f;" glyph-name="format_bold" d="M576 298q28 0 46 19t18 45-18 45-46 19h-150v-128h150zM426 682v-128h128q26 0 45 19t19 45-19 45-45 19h-128zM666 500q92-42 92-146 0-68-45-115t-113-47h-302v598h268q72 0 121-50t49-122-70-118z" />
<glyph unicode="&#xea10;" glyph-name="format_clear" d="M256 746h598v-128h-248l-68-160-90 88 30 72h-102l-120 120v8zM140 746l12-10 616-618-54-54-242 242-66-156h-128l104 246-296 296z" />
<glyph unicode="&#xea11;" glyph-name="format_color_fill" d="M0 106h1024v-170h-1024v170zM810 470q86-94 86-150 0-34-26-60t-60-26-59 26-25 60q0 24 21 62t41 62zM222 534h410l-206 204zM706 578q20-20 20-46t-20-44l-234-234q-20-20-46-20-24 0-44 20l-236 234q-18 18-18 46 0 26 18 44l220 220-102 102 62 60z" />
<glyph unicode="&#xea12;" glyph-name="format_color_reset" d="M224 736l624-624-54-54-114 112q-74-64-168-64-106 0-181 75t-75 181q0 68 56 176l-142 142zM768 362q0-30-6-56l-366 368 116 150q28-32 71-86t114-177 71-199z" />
<glyph unicode="&#xea13;" glyph-name="format_color_text" d="M410 448h204l-102 270zM470 832h84l234-598h-96l-46 128h-268l-48-128h-96zM0 106h1024v-170h-1024v170z" />
<glyph unicode="&#xea14;" glyph-name="format_indent_decrease" d="M470 406v84h426v-84h-426zM470 576v86h426v-86h-426zM128 832h768v-86h-768v86zM128 64v86h768v-86h-768zM128 448l170 170v-340zM470 234v86h426v-86h-426z" />
<glyph unicode="&#xea15;" glyph-name="format_indent_increase" d="M470 406v84h426v-84h-426zM470 576v86h426v-86h-426zM128 832h768v-86h-768v86zM470 234v86h426v-86h-426zM128 618l170-170-170-170v340zM128 64v86h768v-86h-768z" />
<glyph unicode="&#xea16;" glyph-name="format_italic" d="M426 790h342v-128h-120l-144-342h94v-128h-342v128h120l144 342h-94v128z" />
<glyph unicode="&#xea17;" glyph-name="format_line_spacing" d="M426 406v84h512v-84h-512zM426 150v84h512v-84h-512zM426 746h512v-84h-512v84zM256 662v-428h106l-148-148-150 148h106v428h-106l150 148 148-148h-106z" />
<glyph unicode="&#xea18;" glyph-name="format_list_bulleted" d="M298 746h598v-84h-598v84zM298 406v84h598v-84h-598zM298 150v84h598v-84h-598zM170 256q26 0 45-19t19-45-19-45-45-19-45 19-19 45 19 45 45 19zM170 768q26 0 45-18t19-46-19-46-45-18-45 18-19 46 19 46 45 18zM170 512q26 0 45-18t19-46-19-46-45-18-45 18-19 46 19 46 45 18z" />
<glyph unicode="&#xea19;" glyph-name="format_list_numbered" d="M298 406v84h598v-84h-598zM298 150v84h598v-84h-598zM298 746h598v-84h-598v84zM86 490v44h128v-40l-78-88h78v-44h-128v40l76 88h-76zM128 618v128h-42v44h84v-172h-42zM86 234v44h128v-172h-128v44h84v20h-42v44h42v20h-84z" />
<glyph unicode="&#xea1a;" glyph-name="format_paint" d="M768 790h128v-342h-342v-384q0-18-12-30t-30-12h-86q-18 0-30 12t-12 30v470h426v170h-42v-42q0-18-12-31t-30-13h-512q-18 0-31 13t-13 31v170q0 18 13 30t31 12h512q18 0 30-12t12-30v-42z" />
<glyph unicode="&#xea1b;" glyph-name="format_quote" d="M598 234l84 172h-128v256h256v-256l-84-172h-128zM256 234l86 172h-128v256h256v-256l-86-172h-128z" />
<glyph unicode="&#xea1c;" glyph-name="format_size" d="M128 448v128h384v-128h-128v-298h-128v298h-128zM384 790h554v-128h-212v-512h-128v512h-214v128z" />
<glyph unicode="&#xea1d;" glyph-name="format_strikethrough" d="M128 362v86h768v-86h-768zM214 790h596v-128h-212v-128h-172v128h-212v128zM426 150v128h172v-128h-172z" />
<glyph unicode="&#xea1e;" glyph-name="format_textdirection_l_to_r" d="M896 192l-170-170v128h-512v84h512v128zM384 534q-70 0-120 50t-50 120 50 120 120 50h342v-84h-86v-470h-86v470h-84v-470h-86v214z" />
<glyph unicode="&#xea1f;" glyph-name="format_textdirection_r_to_l" d="M342 234h512v-84h-512v-128l-172 170 172 170v-128zM426 534q-70 0-120 50t-50 120 50 120 120 50h342v-84h-86v-470h-84v470h-86v-470h-86v214z" />
<glyph unicode="&#xea20;" glyph-name="format_underlined" d="M214 150h596v-86h-596v86zM512 234q-106 0-181 75t-75 181v342h106v-342q0-62 44-105t106-43 106 43 44 105v342h106v-342q0-106-75-181t-181-75z" />
<glyph unicode="&#xea21;" glyph-name="functions" d="M768 790v-128h-298l212-214-212-214h298v-128h-512v86l278 256-278 256v86h512z" />
<glyph unicode="&#xea22;" glyph-name="insert_chart" d="M726 234v172h-86v-172h86zM554 234v428h-84v-428h84zM384 234v300h-86v-300h86zM810 832q34 0 60-26t26-60v-596q0-34-26-60t-60-26h-596q-34 0-60 26t-26 60v596q0 34 26 60t60 26h596z" />
<glyph unicode="&#xea23;" glyph-name="insert_comment" d="M768 618v86h-512v-86h512zM768 490v86h-512v-86h512zM768 362v86h-512v-86h512zM854 874q34 0 59-25t25-59v-768l-170 170h-598q-34 0-59 26t-25 60v512q0 34 25 59t59 25h684z" />
<glyph unicode="&#xea24;" glyph-name="insert_drive_file" d="M554 576h236l-236 234v-234zM256 874h342l256-256v-512q0-34-26-59t-60-25h-512q-34 0-60 25t-26 59l2 684q0 34 25 59t59 25z" />
<glyph unicode="&#xea25;" glyph-name="insert_emoticon" d="M512 214q-74 0-133 41t-85 107h436q-26-66-85-107t-133-41zM362 490q-26 0-45 19t-19 45 19 45 45 19 45-19 19-45-19-45-45-19zM662 490q-26 0-45 19t-19 45 19 45 45 19 45-19 19-45-19-45-45-19zM512 106q140 0 241 101t101 241-101 241-241 101-241-101-101-241 101-241 241-101zM512 874q176 0 301-125t125-301-125-301-301-125-301 125-125 301 125 301 301 125z" />
<glyph unicode="&#xea26;" glyph-name="insert_invitation" d="M810 150v468h-596v-468h596zM682 918h86v-86h42q34 0 60-26t26-60v-596q0-34-26-60t-60-26h-596q-36 0-61 25t-25 61v596q0 34 25 60t61 26h42v86h86v-86h340v86zM726 448v-214h-214v214h214z" />
<glyph unicode="&#xea27;" glyph-name="insert_photo" d="M362 384l-148-192h596l-192 256-148-192zM896 150q0-34-26-60t-60-26h-596q-34 0-60 26t-26 60v596q0 34 26 60t60 26h596q34 0 60-26t26-60v-596z" />
<glyph unicode="&#xea28;" glyph-name="mode_comment" d="M938 790v-768l-170 170h-598q-34 0-59 26t-25 60v512q0 34 25 59t59 25h684q34 0 59-25t25-59z" />
<glyph unicode="&#xea29;" glyph-name="publish" d="M214 362l298 300 298-300h-170v-256h-256v256h-170zM214 790h596v-86h-596v86z" />
<glyph unicode="&#xea2a;" glyph-name="space_bar" d="M768 576h86v-256h-684v256h86v-170h512v170z" />
<glyph unicode="&#xea2b;" glyph-name="strikethrough_s" d="M400 400q0-108 124-108 98 0 98 72 0 32-13 46t-47 30q-2 0-7 2t-9 4-8 2h-410v86h768v-86h-166q0-2 3-7t5-7q14-34 14-70 0-122-134-160-42-12-92-12-32 0-62 6-72 14-112 44-78 58-78 158h126zM622 640q0 90-102 90-72 0-94-44-6-12-6-28 0-30 32-52 32-20 60-30h-196q0 2-4 5t-4 5q-16 26-16 72 0 74 64 126 62 48 166 48 106 0 166-54 62-56 62-138h-128z" />
<glyph unicode="&#xea2c;" glyph-name="vertical_align_bottom" d="M170 150h684v-86h-684v86zM682 406l-170-172-170 172h128v426h84v-426h128z" />
<glyph unicode="&#xea2d;" glyph-name="vertical_align_center" d="M170 490h684v-84h-684v84zM682 746l-170-170-170 170h128v172h84v-172h128zM342 150l170 170 170-170h-128v-172h-84v172h-128z" />
<glyph unicode="&#xea2e;" glyph-name="vertical_align_top" d="M170 832h684v-86h-684v86zM342 490l170 172 170-172h-128v-426h-84v426h-128z" />
<glyph unicode="&#xea2f;" glyph-name="wrap_text" d="M726 490q70 0 120-50t50-120-50-120-120-50h-86v-86l-128 128 128 128v-86h96q34 0 60 26t26 60-26 60-60 26h-566v84h556zM854 746v-84h-684v84h684zM170 150v84h256v-84h-256z" />
<glyph unicode="&#xea30;" glyph-name="money_off" d="M228 786l622-624-54-54-94 96q-38-34-104-48v-92h-128v92q-66 14-110 56t-48 108h94q8-90 128-90 74 0 102 40l-150 148q-166 50-166 168l-146 146zM534 666q-38 0-66-12l-62 62q28 14 64 24v92h128v-94q64-16 99-60t37-102h-94q-4 90-106 90z" />
<glyph unicode="&#xea31;" glyph-name="drag_handle" d="M170 320v86h684v-86h-684zM854 576v-86h-684v86h684z" />
<glyph unicode="&#xea32;" glyph-name="format_shapes" d="M456 416h112l-56 164zM586 362h-150l-30-84h-70l146 384h60l144-384h-68zM810 746h86v86h-86v-86zM896 64v86h-86v-86h86zM726 150v84h84v428h-84v84h-428v-84h-84v-428h84v-84h428zM214 64v86h-86v-86h86zM128 832v-86h86v86h-86zM982 662h-86v-428h86v-256h-256v86h-428v-86h-256v256h86v428h-86v256h256v-86h428v86h256v-256z" />
<glyph unicode="&#xea33;" glyph-name="highlight" d="M724 680l90 90 60-60-90-92zM150 710l60 60 90-90-60-62zM470 874h84v-128h-84v128zM256 362v214h512v-214l-128-128v-212h-256v212z" />
<glyph unicode="&#xea34;" glyph-name="linear_scale" d="M832 554q44 0 75-31t31-75-31-75-75-31q-72 0-98 64h-124q-26-64-98-64t-98 64h-124q-26-64-98-64-44 0-75 31t-31 75 31 75 75 31q72 0 98-64h124q26 64 98 64t98-64h124q26 64 98 64z" />
<glyph unicode="&#xea35;" glyph-name="short_text" d="M170 406h428v-86h-428v86zM170 576h684v-86h-684v86z" />
<glyph unicode="&#xea36;" glyph-name="text_fields" d="M918 576v-128h-128v-298h-128v298h-128v128h384zM106 790h556v-128h-214v-512h-128v512h-214v128z" />
<glyph unicode="&#xea37;" glyph-name="monetization_on" d="M572 188q134 26 134 134 0 122-180 168-112 28-112 82 0 30 27 50t75 20q90 0 94-80h84q-4 114-122 144v84h-114v-84q-58-12-95-47t-37-89q0-112 178-156 114-26 114-92 0-26-23-47t-79-21q-106 0-114 80h-84q6-114 140-144v-84h114v82zM512 874q176 0 301-125t125-301-125-301-301-125-301 125-125 301 125 301 301 125z" />
<glyph unicode="&#xea38;" glyph-name="title" d="M214 790h596v-128h-234v-512h-128v512h-234v128z" />
<glyph unicode="&#xea39;" glyph-name="table_chart" d="M128 150v384h214v-470h-128q-34 0-60 26t-26 60zM854 832q34 0 59-26t25-60v-128h-810v128q0 34 26 60t60 26h640zM726 64v470h212v-384q0-34-25-60t-59-26h-128zM426 532h214v-468h-214v468z" />
<glyph unicode="&#xea3a;" glyph-name="add_comment" d="M726 490v86h-172v170h-84v-170h-172v-86h172v-170h84v170h172zM938 790v-768l-170 170h-598q-34 0-59 26t-25 60v512q0 34 25 59t59 25h684q34 0 59-25t25-59z" />
<glyph unicode="&#xea3b;" glyph-name="format_list_numbered_rtl" d="M86 490h596v-84h-596v84zM86 234h596v-84h-596v84zM86 746h596v-84h-596v84zM768 490v44h128v-40l-76-88h76v-44h-128v40l76 88h-76zM810 618v128h-42v44h86v-172h-44zM768 234v44h128v-172h-128v44h86v20h-44v44h44v20h-86z" />
<glyph unicode="&#xea3c;" glyph-name="scatter_plot" d="M580 210q0 52 38 90t90 38 90-38 38-90-38-90-90-38-90 38-38 90zM342 704q0 52 38 90t90 38 90-38 38-90-38-90-90-38-90 38-38 90zM170 362q0 52 38 90t90 38 90-38 38-90-38-90-90-38-90 38-38 90z" />
<glyph unicode="&#xea3d;" glyph-name="score" d="M810 406v106l-256-256-170 170-170-170v-106l170 170 170-170zM298 650v-160h172v64h-108v32h108v160h-172v-64h108v-32h-108zM512 746v-256h64v128l86-128h72l-86 128 86 128h-72l-86-128v128h-64zM810 832q34 0 60-26t26-60v-596q0-34-26-60t-60-26h-596q-34 0-60 26t-26 60v596q0 34 26 60t60 26h596z" />
<glyph unicode="&#xea3e;" glyph-name="insert_chart_outlined" d="M832 832q34 0 60-26t26-60v-596q0-34-26-60t-60-26h-640q-34 0-60 26t-26 60v596q0 34 26 60t60 26h640zM832 146v600h-640v-600h640zM726 234h-86v172h86v-172zM554 234h-84v428h84v-428zM384 234h-86v300h86v-300z" />
<glyph unicode="&#xea3f;" glyph-name="bar_chart" d="M692 406h118v-256h-118v256zM452 746h120v-596h-120v596zM214 568h128v-418h-128v418z" />
<glyph unicode="&#xea40;" glyph-name="notes" d="M128 406v84h768v-84h-768zM128 704h768v-86h-768v86zM128 192v86h512v-86h-512z" />
<glyph unicode="&#xea41;" glyph-name="attachment" d="M86 426q0 98 68 167t166 69h448q70 0 120-51t50-121-50-120-120-50h-362q-44 0-76 31t-32 75 32 76 76 32h320v-86h-324q-18 0-18-21t18-21h366q34 0 60 25t26 59-26 60-60 26h-448q-62 0-106-44t-44-106 44-105 106-43h406v-86h-406q-98 0-166 68t-68 166z" />
<glyph unicode="&#xea42;" glyph-name="cloud1" d="M826 532q82-6 140-67t58-145q0-88-63-151t-151-63h-554q-106 0-181 75t-75 181q0 94 67 169t161 85q42 78 118 126t166 48q108 0 201-76t113-182z" />
<glyph unicode="&#xea43;" glyph-name="cloud_circle" d="M704 278q44 0 75 31t31 75-31 75-75 31h-22q0 70-50 121t-120 51q-54 0-102-38t-62-92l-6 2q-52 0-90-38t-38-90 38-90 90-38h362zM512 874q176 0 301-125t125-301-125-301-301-125-301 125-125 301 125 301 301 125z" />
<glyph unicode="&#xea44;" glyph-name="cloud_done" d="M426 234l282 282-60 60-222-220-88 88-60-60zM826 532q82-6 140-67t58-145q0-88-63-151t-151-63h-554q-106 0-181 75t-75 181q0 94 67 169t161 85q42 78 118 126t166 48q108 0 201-76t113-182z" />
<glyph unicode="&#xea45;" glyph-name="cloud_download" d="M726 406h-128v170h-172v-170h-128l214-214zM826 532q82-6 140-67t58-145q0-88-63-151t-151-63h-554q-106 0-181 75t-75 181q0 94 67 169t161 85q42 78 118 126t166 48q108 0 201-76t113-182z" />
<glyph unicode="&#xea46;" glyph-name="cloud_off" d="M330 534h-74q-70 0-120-51t-50-121 50-120 120-50h416zM128 736l54 54 714-714-54-54-86 84h-500q-106 0-181 75t-75 181q0 104 72 178t174 78zM826 532q82-6 140-67t58-145q0-110-90-174l-62 62q66 36 66 112 0 52-38 90t-90 38h-64v22q0 98-68 166t-166 68q-56 0-108-26l-64 62q78 50 172 50 108 0 201-76t113-182z" />
<glyph unicode="&#xea47;" glyph-name="cloud_queue" d="M810 192q52 0 90 38t38 90-38 90-90 38h-64v22q0 98-68 166t-166 68q-80 0-142-48t-84-122h-30q-70 0-120-51t-50-121 50-120 120-50h554zM826 532q82-6 140-67t58-145q0-88-63-151t-151-63h-554q-106 0-181 75t-75 181q0 94 67 169t161 85q42 78 118 126t166 48q108 0 201-76t113-182z" />
<glyph unicode="&#xea48;" glyph-name="cloud_upload" d="M598 406h128l-214 212-214-212h128v-172h172v172zM826 532q82-6 140-67t58-145q0-88-63-151t-151-63h-554q-106 0-181 75t-75 181q0 94 67 169t161 85q42 78 118 126t166 48q108 0 201-76t113-182z" />
<glyph unicode="&#xea49;" glyph-name="file_download" d="M214 192h596v-86h-596v86zM810 576l-298-298-298 298h170v256h256v-256h170z" />
<glyph unicode="&#xea4a;" glyph-name="file_upload" d="M214 192h596v-86h-596v86zM384 278v256h-170l298 298 298-298h-170v-256h-256z" />
<glyph unicode="&#xea4b;" glyph-name="folder1" d="M426 790l86-86h342q34 0 59-26t25-60v-426q0-34-25-60t-59-26h-684q-34 0-59 26t-25 60v512q0 34 25 60t59 26h256z" />
<glyph unicode="&#xea4c;" glyph-name="folder_open" d="M854 192v426h-684v-426h684zM854 704q34 0 59-26t25-60v-426q0-34-25-60t-59-26h-684q-34 0-59 26t-25 60v512q0 34 25 60t59 26h256l86-86h342z" />
<glyph unicode="&#xea4d;" glyph-name="folder_shared" d="M810 234v44q0 38-59 61t-111 23-111-23-59-61v-44h340zM640 576q-34 0-60-26t-26-60 26-59 60-25 60 25 26 59-26 60-60 26zM854 704q34 0 59-26t25-60v-426q0-34-25-60t-59-26h-684q-34 0-59 26t-25 60v512q0 34 25 60t59 26h256l86-86h342z" />
<glyph unicode="&#xea4e;" glyph-name="create_new_folder" d="M810 362v86h-128v128h-84v-128h-128v-86h128v-128h84v128h128zM854 704q36 0 60-25t24-61v-426q0-36-24-61t-60-25h-684q-36 0-60 25t-24 61v512q0 36 24 61t60 25h256l86-86h342z" />
<glyph unicode="&#xea4f;" glyph-name="cast" d="M42 534q194 0 332-138t138-332h-86q0 160-113 272t-271 112v86zM42 362q124 0 212-87t88-211h-86q0 88-63 151t-151 63v84zM42 192q52 0 90-38t38-90h-128v128zM896 832q34 0 60-26t26-60v-596q0-34-26-60t-60-26h-298v86h298v596h-768v-128h-86v128q0 34 26 60t60 26h768z" />
<glyph unicode="&#xea50;" glyph-name="cast_connected" d="M896 832q34 0 60-26t26-60v-596q0-34-26-60t-60-26h-298v86h298v596h-768v-128h-86v128q0 34 26 60t60 26h768zM42 534q194 0 332-138t138-332h-86q0 160-113 272t-271 112v86zM810 662v-428h-240q-40 126-135 222t-221 136v70h596zM42 362q124 0 212-87t88-211h-86q0 88-63 151t-151 63v84zM42 192q52 0 90-38t38-90h-128v128z" />
<glyph unicode="&#xea51;" glyph-name="computer" d="M170 704v-426h684v426h-684zM854 192h170v-86h-1024v86h170q-34 0-59 26t-25 60v426q0 34 25 60t59 26h684q34 0 59-26t25-60v-426q0-34-25-60t-59-26z" />
<glyph unicode="&#xea52;" glyph-name="desktop_mac" d="M896 362v428h-768v-428h768zM896 874q34 0 60-25t26-59v-512q0-34-26-60t-60-26h-298l84-128v-42h-340v42l84 128h-298q-34 0-60 26t-26 60v512q0 34 26 59t60 25h768z" />
<glyph unicode="&#xea53;" glyph-name="desktop_windows" d="M896 278v512h-768v-512h768zM896 874q34 0 60-25t26-59v-512q0-34-26-60t-60-26h-298v-86h84v-84h-340v84h84v86h-298q-34 0-60 26t-26 60v512q0 34 26 59t60 25h768z" />
<glyph unicode="&#xea54;" glyph-name="developer_board" d="M512 490h170v-256h-170v256zM256 662h214v-214h-214v214zM512 662h170v-128h-170v128zM256 406h214v-172h-214v172zM768 150v596h-598v-596h598zM938 576h-84v-86h84v-84h-84v-86h84v-86h-84v-84q0-34-26-60t-60-26h-598q-34 0-59 26t-25 60v596q0 34 25 60t59 26h598q34 0 60-26t26-60v-84h84v-86z" />
<glyph unicode="&#xea55;" glyph-name="dock" d="M682 320v426h-340v-426h340zM682 916q34 0 60-25t26-59v-598q0-34-26-59t-60-25h-340q-34 0-60 25t-26 59v598q0 34 26 60t60 26zM342-22v86h340v-86h-340z" />
<glyph unicode="&#xea56;" glyph-name="headset" d="M512 918q160 0 272-113t112-271v-300q0-52-38-90t-90-38h-128v342h170v86q0 124-87 211t-211 87-211-87-87-211v-86h170v-342h-128q-52 0-90 38t-38 90v300q0 158 112 271t272 113z" />
<glyph unicode="&#xea57;" glyph-name="headset_mic" d="M512 918q160 0 272-113t112-271v-428q0-52-38-90t-90-38h-256v86h298v42h-170v342h170v86q0 124-87 211t-211 87-211-87-87-211v-86h170v-342h-128q-52 0-90 38t-38 90v300q0 158 112 271t272 113z" />
<glyph unicode="&#xea58;" glyph-name="keyboard" d="M810 534v84h-84v-84h84zM810 406v84h-84v-84h84zM682 534v84h-84v-84h84zM682 406v84h-84v-84h84zM682 234v86h-340v-86h340zM298 534v84h-84v-84h84zM298 406v84h-84v-84h84zM342 490v-84h84v84h-84zM342 618v-84h84v84h-84zM470 490v-84h84v84h-84zM470 618v-84h84v84h-84zM854 746q34 0 59-25t25-59v-428q0-34-25-59t-59-25h-684q-34 0-59 25t-25 59v428q0 34 25 59t59 25h684z" />
<glyph unicode="&#xea59;" glyph-name="keyboard_arrow_down" d="M316 594l196-196 196 196 60-60-256-256-256 256z" />
<glyph unicode="&#xea5a;" glyph-name="keyboard_arrow_left" d="M658 252l-60-60-256 256 256 256 60-60-196-196z" />
<glyph unicode="&#xea5b;" glyph-name="keyboard_arrow_right" d="M366 252l196 196-196 196 60 60 256-256-256-256z" />
<glyph unicode="&#xea5c;" glyph-name="keyboard_arrow_up" d="M316 302l-60 60 256 256 256-256-60-60-196 196z" />
<glyph unicode="&#xea5d;" glyph-name="keyboard_backspace" d="M896 490v-84h-604l152-154-60-60-256 256 256 256 60-60-152-154h604z" />
<glyph unicode="&#xea5e;" glyph-name="keyboard_capslock" d="M256 192v86h512v-86h-512zM512 602l-196-196-60 60 256 256 256-256-60-60z" />
<glyph unicode="&#xea5f;" glyph-name="keyboard_hide" d="M512-22l-170 172h340zM810 618v86h-84v-86h84zM810 490v86h-84v-86h84zM682 618v86h-84v-86h84zM682 490v86h-84v-86h84zM682 320v86h-340v-86h340zM298 618v86h-84v-86h84zM298 490v86h-84v-86h84zM342 576v-86h84v86h-84zM342 704v-86h84v86h-84zM470 576v-86h84v86h-84zM470 704v-86h84v86h-84zM854 832q34 0 59-26t25-60v-426q0-34-25-60t-59-26h-684q-34 0-59 26t-25 60v426q0 34 25 60t59 26h684z" />
<glyph unicode="&#xea60;" glyph-name="keyboard_return" d="M810 662h86v-256h-648l154-154-60-60-256 256 256 256 60-60-154-154h562v172z" />
<glyph unicode="&#xea61;" glyph-name="keyboard_tab" d="M854 704h84v-512h-84v512zM494 644l60 60 256-256-256-256-60 60 154 154h-606v84h606z" />
<glyph unicode="&#xea62;" glyph-name="keyboard_voice" d="M738 448h72q0-108-75-189t-181-97v-140h-84v140q-106 16-181 97t-75 189h72q0-94 67-156t159-62 159 62 67 156zM512 320q-52 0-90 38t-38 90v256q0 52 38 90t90 38 90-38 38-90v-256q0-52-38-90t-90-38z" />
<glyph unicode="&#xea63;" glyph-name="laptop_chromebook" d="M854 320v426h-684v-426h684zM598 192v42h-172v-42h172zM938 192h86v-86h-1024v86h86v640h852v-640z" />
<glyph unicode="&#xea64;" glyph-name="laptop_mac" d="M512 150q18 0 30 12t12 30-12 30-30 12-30-12-12-30 12-30 30-12zM170 746v-468h684v468h-684zM854 192h170q0-34-26-60t-60-26h-852q-34 0-60 26t-26 60h170q-34 0-59 26t-25 60v468q0 34 25 60t59 26h684q34 0 59-26t25-60v-468q0-34-25-60t-59-26z" />
<glyph unicode="&#xea65;" glyph-name="laptop_windows" d="M170 746v-426h684v426h-684zM854 192h170v-86h-1024v86h170v42q-34 0-59 26t-25 60v426q0 34 25 60t59 26h684q34 0 59-26t25-60v-426q0-34-25-60t-59-26v-42z" />
<glyph unicode="&#xea66;" glyph-name="memory" d="M726 234v428h-428v-428h428zM896 490h-86v-84h86v-86h-86v-86q0-34-25-59t-59-25h-86v-86h-86v86h-84v-86h-86v86h-86q-34 0-59 25t-25 59v86h-86v86h86v84h-86v86h86v86q0 34 25 59t59 25h86v86h86v-86h84v86h86v-86h86q34 0 59-25t25-59v-86h86v-86zM554 406v84h-84v-84h84zM640 576v-256h-256v256h256z" />
<glyph unicode="&#xea67;" glyph-name="mouse" d="M470 914v-338h-300q0 130 87 226t213 112zM170 320v170h684v-170q0-140-101-241t-241-101-241 101-101 241zM554 914q126-16 213-112t87-226h-300v338z" />
<glyph unicode="&#xea68;" glyph-name="phone_android" d="M736 192v598h-448v-598h448zM598 64v42h-172v-42h172zM682 918q52 0 90-38t38-90v-684q0-52-38-90t-90-38h-340q-52 0-90 38t-38 90v684q0 52 38 90t90 38h340z" />
<glyph unicode="&#xea69;" glyph-name="phone_iphone" d="M682 192v598h-384v-598h384zM490 22q26 0 45 19t19 45-19 45-45 19-45-19-19-45 19-45 45-19zM662 918q44 0 75-32t31-76v-724q0-44-31-76t-75-32h-342q-44 0-75 32t-31 76v724q0 44 31 76t75 32h342z" />
<glyph unicode="&#xea6a;" glyph-name="phonelink_off" d="M982 618q18 0 30-12t12-30v-426q0-18-12-31t-30-13h-8l-128 128h92v300h-170v-222l-86 86v178q0 18 13 30t31 12h256zM170 692v-458h458zM82 890q162-162 461-462t367-368l-54-54-100 100h-756v128h86v470q0 30 20 54l-78 78zM938 704h-562l-86 86h648v-86z" />
<glyph unicode="&#xea6b;" glyph-name="router" d="M640 192v86h-86v-86h86zM490 192v86h-84v-86h84zM342 192v86h-86v-86h86zM810 406q34 0 60-26t26-60v-170q0-34-26-60t-60-26h-596q-34 0-60 26t-26 60v170q0 34 26 60t60 26h426v170h86v-170h84zM824 674l-34-34q-42 42-108 42-64 0-106-42l-34 34q60 60 140 60 82 0 142-60zM862 708q-82 72-180 72-96 0-178-72l-34 34q90 90 212 90 124 0 214-90z" />
<glyph unicode="&#xea6c;" glyph-name="scanner" d="M810 234v86h-426v-86h426zM298 234v86h-84v-86h84zM844 504q22-6 37-29t15-49v-234q0-34-26-60t-60-26h-596q-34 0-60 26t-26 60v170q0 34 26 60t60 26h536l-600 218 30 80z" />
<glyph unicode="&#xea6d;" glyph-name="security" d="M512 918l384-172v-256q0-178-110-325t-274-187q-164 40-274 187t-110 325v256zM512 448v-382q118 38 200 143t98 239h-298zM512 448v376l-298-132v-244h298z" />
<glyph unicode="&#xea6e;" glyph-name="sim_card" d="M726 320v170h-86v-170h86zM554 406v84h-84v-84h84zM554 150v170h-84v-170h84zM384 320v170h-86v-170h86zM726 150v84h-86v-84h86zM384 150v84h-86v-84h86zM852 790l2-684q0-34-26-59t-60-25h-512q-34 0-60 25t-26 59v512l256 256h342q34 0 59-25t25-59z" />
<glyph unicode="&#xea6f;" glyph-name="speaker" d="M512 448q52 0 90-38t38-90-38-90-90-38-90 38-38 90 38 90 90 38zM512 106q88 0 151 63t63 151-63 151-151 63-151-63-63-151 63-151 151-63zM512 790q-36 0-61-25t-25-61 25-61 61-25q34 0 60 26t26 60-26 60-60 26zM726 874q34 0 59-25t25-59v-684q0-34-25-59t-59-25h-428q-34 0-59 25t-25 59v684q0 34 25 59t59 25h428z" />
<glyph unicode="&#xea70;" glyph-name="speaker_group" d="M256 746v-682h426v-86h-426q-36 0-61 25t-25 61v682h86zM490 426q0 44 32 76t76 32 75-32 31-76-31-75-75-31-76 31-32 75zM598 256q70 0 120 50t50 120-50 121-120 51-121-51-51-121 51-120 121-50zM598 832q-34 0-60-25t-26-61 25-60 61-24q34 0 59 24t25 60-25 61-59 25zM776 918q32 0 55-23t23-55v-614q0-32-23-54t-55-22h-358q-32 0-54 22t-22 54v614q0 32 22 55t54 23h358z" />
<glyph unicode="&#xea71;" glyph-name="tablet1" d="M810 192v512h-596v-512h596zM896 790q34 0 60-26t26-60l-2-512q0-34-25-60t-59-26h-768q-34 0-60 26t-26 60v512q0 34 26 60t60 26h768z" />
<glyph unicode="&#xea72;" glyph-name="tablet_android" d="M822 150v682h-620v-682h620zM598 22v42h-172v-42h172zM768 960q52 0 90-38t38-90v-768q0-52-38-90t-90-38h-512q-52 0-90 38t-38 90v768q0 52 38 90t90 38h512z" />
<glyph unicode="&#xea73;" glyph-name="tablet_mac" d="M810 150v682h-640v-682h640zM490-22q26 0 45 19t19 45-19 45-45 19-45-19-19-45 19-45 45-19zM790 960q44 0 75-31t31-75v-812q0-44-31-75t-75-31h-598q-44 0-75 31t-31 75v812q0 44 31 75t75 31h598z" />
<glyph unicode="&#xea74;" glyph-name="toys" d="M512 448q0-96-69-165t-165-69-166 69-70 165h470zM512 448q-96 0-165 69t-69 165 69 166 165 70v-470zM512 448q96 0 165-69t69-165-69-166-165-70v470zM512 448q0 96 69 165t165 69 166-69 70-165h-470z" />
<glyph unicode="&#xea75;" glyph-name="tv1" d="M896 234v512h-768v-512h768zM896 832q34 0 60-26t26-60l-2-512q0-34-25-59t-59-25h-214v-86h-340v86h-214q-34 0-60 25t-26 59v512q0 34 26 60t60 26h768z" />
<glyph unicode="&#xea76;" glyph-name="watch" d="M256 448q0-106 75-181t181-75 181 75 75 181-75 181-181 75-181-75-75-181zM854 448q0-70-38-148t-92-120l-42-244h-340l-42 244q-130 100-130 268t130 268l42 244h340l42-244q130-104 130-268z" />
<glyph unicode="&#xea77;" glyph-name="device_hub" d="M726 278h170v-214h-214v130l-170 180-170-180v-130h-214v214h170l172 170v136q-38 14-62 46t-24 74q0 52 38 90t90 38 90-38 38-90q0-42-24-74t-62-46v-136z" />
<glyph unicode="&#xea78;" glyph-name="power_input" d="M682 320v86h214v-86h-214zM384 320v86h214v-86h-214zM86 320v86h212v-86h-212zM86 576h810v-86h-810v86z" />
<glyph unicode="&#xea79;" glyph-name="devices_other" d="M896 192v342h-170v-342h170zM938 618q16 0 30-13t14-29v-426q0-16-14-30t-30-14h-256q-16 0-29 14t-13 30v426q0 16 13 29t29 13h256zM470 214q26 0 45 19t19 45-19 45-45 19-45-19-19-45 19-45 45-19zM554 448v-76q44-40 44-94 0-56-44-96v-76h-170v76q-42 38-42 96 0 56 42 94v76h170zM128 704v-512h170v-86h-170q-34 0-60 26t-26 60v512q0 34 26 60t60 26h768v-86h-768z" />
<glyph unicode="&#xea7a;" glyph-name="videogame_asset" d="M832 448q28 0 46 18t18 46-18 46-46 18-46-18-18-46 18-46 46-18zM662 320q26 0 45 18t19 46-19 46-45 18-45-18-19-46 19-46 45-18zM470 406v84h-128v128h-86v-128h-128v-84h128v-128h86v128h128zM896 704q34 0 60-26t26-60v-340q0-34-26-60t-60-26h-768q-34 0-60 26t-26 60v340q0 34 26 60t60 26h768z" />
<glyph unicode="&#xea7b;" glyph-name="device_unknown" d="M474 298h76v-76h-76v76zM512 674q64 0 107-43t43-105q0-50-56-100t-56-90h-76q0 42 17 71t39 42 39 33 17 44q0 30-22 52t-52 22-52-22-22-52h-76q0 62 43 105t107 43zM726 150v596h-428v-596h428zM726 918q34 0 59-26t25-60v-768q0-34-25-60t-59-26h-428q-34 0-59 26t-25 60v768q0 34 25 60t59 26h428z" />
<glyph unicode="&#xea7c;" glyph-name="headset_off" d="M96 886l854-854-54-54-92 92q-18-6-36-6h-128v170l-392 394q-34-62-34-138v-84h170v-342h-128q-52 0-90 38t-38 90v298q0 112 56 200l-142 142zM512 790q-88 0-162-48l-62 60q98 72 224 72 160 0 272-113t112-271v-294l-210 210h124v84q0 124-87 212t-211 88z" />
<glyph unicode="&#xea7d;" glyph-name="adjust1" d="M640 448q0-52-38-90t-90-38-90 38-38 90 38 90 90 38 90-38 38-90zM512 106q140 0 241 101t101 241-101 241-241 101-241-101-101-241 101-241 241-101zM512 874q176 0 301-125t125-301-125-301-301-125-301 125-125 301 125 301 301 125z" />
<glyph unicode="&#xea7e;" glyph-name="assistant" d="M592 410l176 80-176 80-80 176-80-176-176-80 176-80 80-176zM810 874q34 0 60-25t26-59v-598q0-34-26-60t-60-26h-170l-128-128-128 128h-170q-34 0-60 26t-26 60v598q0 34 26 59t60 25h596z" />
<glyph unicode="&#xea7f;" glyph-name="audiotrack" d="M512 832h298v-128h-170v-470h-2q-8-72-62-121t-128-49q-80 0-136 56t-56 136 56 136 136 56q28 0 64-12v396z" />
<glyph unicode="&#xea80;" glyph-name="blur_circular" d="M598 406q18 0 30-13t12-31-12-30-30-12-31 12-13 30 13 31 31 13zM598 256q20 0 20-22 0-20-20-20-22 0-22 20 0 22 22 22zM512 106q140 0 241 101t101 241-101 241-241 101-241-101-101-241 101-241 241-101zM512 874q176 0 301-125t125-301-125-301-301-125-301 125-125 301 125 301 301 125zM726 554q20 0 20-20 0-22-20-22-22 0-22 22 0 20 22 20zM726 384q20 0 20-22 0-20-20-20-22 0-22 20 0 22 22 22zM598 640q-22 0-22 22 0 20 22 20 20 0 20-20 0-22-20-22zM598 576q18 0 30-12t12-30-12-31-30-13-31 13-13 31 13 30 31 12zM426 640q-20 0-20 22 0 20 20 20 22 0 22-20 0-22-22-22zM298 384q22 0 22-22 0-20-22-20-20 0-20 20 0 22 20 22zM426 256q22 0 22-22 0-20-22-20-20 0-20 20 0 22 20 22zM298 554q22 0 22-20 0-22-22-22-20 0-20 22 0 20 20 20zM426 406q18 0 31-13t13-31-13-30-31-12-30 12-12 30 12 31 30 13zM426 576q18 0 31-12t13-30-13-31-31-13-30 13-12 31 12 30 30 12z" />
</font>
</defs>
</svg>
